<?xml version="1.0" encoding="utf-8" standalone="no"?>
<!DOCTYPE svg PUBLIC "-//W3C//DTD SVG 1.1//EN"
  "http://www.w3.org/Graphics/SVG/1.1/DTD/svg11.dtd">
<svg xmlns:xlink="http://www.w3.org/1999/xlink" width="216pt" height="144pt" viewBox="0 0 216 144" xmlns="http://www.w3.org/2000/svg" version="1.1">
 <metadata>
  <rdf:RDF xmlns:dc="http://purl.org/dc/elements/1.1/" xmlns:cc="http://creativecommons.org/ns#" xmlns:rdf="http://www.w3.org/1999/02/22-rdf-syntax-ns#">
   <cc:Work>
    <dc:type rdf:resource="http://purl.org/dc/dcmitype/StillImage"/>
    <dc:date>2025-03-25T17:32:03.718400</dc:date>
    <dc:format>image/svg+xml</dc:format>
    <dc:creator>
     <cc:Agent>
      <dc:title>Matplotlib v3.9.2, https://matplotlib.org/</dc:title>
     </cc:Agent>
    </dc:creator>
   </cc:Work>
  </rdf:RDF>
 </metadata>
 <defs>
  <style type="text/css">*{stroke-linejoin: round; stroke-linecap: butt}</style>
 </defs>
 <g id="figure_1">
  <g id="patch_1">
   <path d="M 0 144 
L 216 144 
L 216 0 
L 0 0 
z
" style="fill: #ffffff"/>
  </g>
  <g id="axes_1">
   <g id="patch_2">
    <path d="M 27 128.16 
L 194.4 128.16 
L 194.4 17.28 
L 27 17.28 
z
" style="fill: #ffffff"/>
   </g>
   <g id="patch_3">
    <path d="M 32.58 128.16 
L 77.22 128.16 
L 77.22 22.56 
L 32.58 22.56 
z
" clip-path="url(#pbf6d1538f8)" style="fill: #3274a1"/>
   </g>
   <g id="patch_4">
    <path d="M 88.38 128.16 
L 133.02 128.16 
L 133.02 49.062047 
L 88.38 49.062047 
z
" clip-path="url(#pbf6d1538f8)" style="fill: #e1812c"/>
   </g>
   <g id="patch_5">
    <path d="M 144.18 128.16 
L 188.82 128.16 
L 188.82 30.288495 
L 144.18 30.288495 
z
" clip-path="url(#pbf6d1538f8)" style="fill: #3a923a"/>
   </g>
   <g id="matplotlib.axis_1">
    <g id="xtick_1">
     <g id="line2d_1">
      <defs>
       <path id="m717777bfd1" d="M 0 0 
L 0 3.5 
" style="stroke: #000000; stroke-width: 0.8"/>
      </defs>
      <g>
       <use xlink:href="#m717777bfd1" x="54.9" y="128.16" style="stroke: #000000; stroke-width: 0.8"/>
      </g>
     </g>
     <g id="text_1">
      <!-- BART30 -->
      <g transform="translate(35.521094 142.758438) scale(0.1 -0.1)">
       <defs>
        <path id="DejaVuSans-42" d="M 1259 2228 
L 1259 519 
L 2272 519 
Q 2781 519 3026 730 
Q 3272 941 3272 1375 
Q 3272 1813 3026 2020 
Q 2781 2228 2272 2228 
L 1259 2228 
z
M 1259 4147 
L 1259 2741 
L 2194 2741 
Q 2656 2741 2882 2914 
Q 3109 3088 3109 3444 
Q 3109 3797 2882 3972 
Q 2656 4147 2194 4147 
L 1259 4147 
z
M 628 4666 
L 2241 4666 
Q 2963 4666 3353 4366 
Q 3744 4066 3744 3513 
Q 3744 3084 3544 2831 
Q 3344 2578 2956 2516 
Q 3422 2416 3680 2098 
Q 3938 1781 3938 1306 
Q 3938 681 3513 340 
Q 3088 0 2303 0 
L 628 0 
L 628 4666 
z
" transform="scale(0.015625)"/>
        <path id="DejaVuSans-41" d="M 2188 4044 
L 1331 1722 
L 3047 1722 
L 2188 4044 
z
M 1831 4666 
L 2547 4666 
L 4325 0 
L 3669 0 
L 3244 1197 
L 1141 1197 
L 716 0 
L 50 0 
L 1831 4666 
z
" transform="scale(0.015625)"/>
        <path id="DejaVuSans-52" d="M 2841 2188 
Q 3044 2119 3236 1894 
Q 3428 1669 3622 1275 
L 4263 0 
L 3584 0 
L 2988 1197 
Q 2756 1666 2539 1819 
Q 2322 1972 1947 1972 
L 1259 1972 
L 1259 0 
L 628 0 
L 628 4666 
L 2053 4666 
Q 2853 4666 3247 4331 
Q 3641 3997 3641 3322 
Q 3641 2881 3436 2590 
Q 3231 2300 2841 2188 
z
M 1259 4147 
L 1259 2491 
L 2053 2491 
Q 2509 2491 2742 2702 
Q 2975 2913 2975 3322 
Q 2975 3731 2742 3939 
Q 2509 4147 2053 4147 
L 1259 4147 
z
" transform="scale(0.015625)"/>
        <path id="DejaVuSans-54" d="M -19 4666 
L 3928 4666 
L 3928 4134 
L 2272 4134 
L 2272 0 
L 1638 0 
L 1638 4134 
L -19 4134 
L -19 4666 
z
" transform="scale(0.015625)"/>
        <path id="DejaVuSans-33" d="M 2597 2516 
Q 3050 2419 3304 2112 
Q 3559 1806 3559 1356 
Q 3559 666 3084 287 
Q 2609 -91 1734 -91 
Q 1441 -91 1130 -33 
Q 819 25 488 141 
L 488 750 
Q 750 597 1062 519 
Q 1375 441 1716 441 
Q 2309 441 2620 675 
Q 2931 909 2931 1356 
Q 2931 1769 2642 2001 
Q 2353 2234 1838 2234 
L 1294 2234 
L 1294 2753 
L 1863 2753 
Q 2328 2753 2575 2939 
Q 2822 3125 2822 3475 
Q 2822 3834 2567 4026 
Q 2313 4219 1838 4219 
Q 1578 4219 1281 4162 
Q 984 4106 628 3988 
L 628 4550 
Q 988 4650 1302 4700 
Q 1616 4750 1894 4750 
Q 2613 4750 3031 4423 
Q 3450 4097 3450 3541 
Q 3450 3153 3228 2886 
Q 3006 2619 2597 2516 
z
" transform="scale(0.015625)"/>
        <path id="DejaVuSans-30" d="M 2034 4250 
Q 1547 4250 1301 3770 
Q 1056 3291 1056 2328 
Q 1056 1369 1301 889 
Q 1547 409 2034 409 
Q 2525 409 2770 889 
Q 3016 1369 3016 2328 
Q 3016 3291 2770 3770 
Q 2525 4250 2034 4250 
z
M 2034 4750 
Q 2819 4750 3233 4129 
Q 3647 3509 3647 2328 
Q 3647 1150 3233 529 
Q 2819 -91 2034 -91 
Q 1250 -91 836 529 
Q 422 1150 422 2328 
Q 422 3509 836 4129 
Q 1250 4750 2034 4750 
z
" transform="scale(0.015625)"/>
       </defs>
       <use xlink:href="#DejaVuSans-42"/>
       <use xlink:href="#DejaVuSans-41" x="68.603516"/>
       <use xlink:href="#DejaVuSans-52" x="137.011719"/>
       <use xlink:href="#DejaVuSans-54" x="199.244141"/>
       <use xlink:href="#DejaVuSans-33" x="260.328125"/>
       <use xlink:href="#DejaVuSans-30" x="323.951172"/>
      </g>
     </g>
    </g>
    <g id="xtick_2">
     <g id="line2d_2">
      <g>
       <use xlink:href="#m717777bfd1" x="110.7" y="128.16" style="stroke: #000000; stroke-width: 0.8"/>
      </g>
     </g>
     <g id="text_2">
      <!-- MFC -->
      <g transform="translate(100.01875 142.758438) scale(0.1 -0.1)">
       <defs>
        <path id="DejaVuSans-4d" d="M 628 4666 
L 1569 4666 
L 2759 1491 
L 3956 4666 
L 4897 4666 
L 4897 0 
L 4281 0 
L 4281 4097 
L 3078 897 
L 2444 897 
L 1241 4097 
L 1241 0 
L 628 0 
L 628 4666 
z
" transform="scale(0.015625)"/>
        <path id="DejaVuSans-46" d="M 628 4666 
L 3309 4666 
L 3309 4134 
L 1259 4134 
L 1259 2759 
L 3109 2759 
L 3109 2228 
L 1259 2228 
L 1259 0 
L 628 0 
L 628 4666 
z
" transform="scale(0.015625)"/>
        <path id="DejaVuSans-43" d="M 4122 4306 
L 4122 3641 
Q 3803 3938 3442 4084 
Q 3081 4231 2675 4231 
Q 1875 4231 1450 3742 
Q 1025 3253 1025 2328 
Q 1025 1406 1450 917 
Q 1875 428 2675 428 
Q 3081 428 3442 575 
Q 3803 722 4122 1019 
L 4122 359 
Q 3791 134 3420 21 
Q 3050 -91 2638 -91 
Q 1578 -91 968 557 
Q 359 1206 359 2328 
Q 359 3453 968 4101 
Q 1578 4750 2638 4750 
Q 3056 4750 3426 4639 
Q 3797 4528 4122 4306 
z
" transform="scale(0.015625)"/>
       </defs>
       <use xlink:href="#DejaVuSans-4d"/>
       <use xlink:href="#DejaVuSans-46" x="86.279297"/>
       <use xlink:href="#DejaVuSans-43" x="143.798828"/>
      </g>
     </g>
    </g>
    <g id="xtick_3">
     <g id="line2d_3">
      <g>
       <use xlink:href="#m717777bfd1" x="166.5" y="128.16" style="stroke: #000000; stroke-width: 0.8"/>
      </g>
     </g>
     <g id="text_3">
      <!-- MFB -->
      <g transform="translate(155.879687 142.758438) scale(0.1 -0.1)">
       <use xlink:href="#DejaVuSans-4d"/>
       <use xlink:href="#DejaVuSans-46" x="86.279297"/>
       <use xlink:href="#DejaVuSans-42" x="143.798828"/>
      </g>
     </g>
    </g>
    <g id="text_4">
     <!-- Model -->
     <g transform="translate(95.686719 156.436563) scale(0.1 -0.1)">
      <defs>
       <path id="DejaVuSans-6f" d="M 1959 3097 
Q 1497 3097 1228 2736 
Q 959 2375 959 1747 
Q 959 1119 1226 758 
Q 1494 397 1959 397 
Q 2419 397 2687 759 
Q 2956 1122 2956 1747 
Q 2956 2369 2687 2733 
Q 2419 3097 1959 3097 
z
M 1959 3584 
Q 2709 3584 3137 3096 
Q 3566 2609 3566 1747 
Q 3566 888 3137 398 
Q 2709 -91 1959 -91 
Q 1206 -91 779 398 
Q 353 888 353 1747 
Q 353 2609 779 3096 
Q 1206 3584 1959 3584 
z
" transform="scale(0.015625)"/>
       <path id="DejaVuSans-64" d="M 2906 2969 
L 2906 4863 
L 3481 4863 
L 3481 0 
L 2906 0 
L 2906 525 
Q 2725 213 2448 61 
Q 2172 -91 1784 -91 
Q 1150 -91 751 415 
Q 353 922 353 1747 
Q 353 2572 751 3078 
Q 1150 3584 1784 3584 
Q 2172 3584 2448 3432 
Q 2725 3281 2906 2969 
z
M 947 1747 
Q 947 1113 1208 752 
Q 1469 391 1925 391 
Q 2381 391 2643 752 
Q 2906 1113 2906 1747 
Q 2906 2381 2643 2742 
Q 2381 3103 1925 3103 
Q 1469 3103 1208 2742 
Q 947 2381 947 1747 
z
" transform="scale(0.015625)"/>
       <path id="DejaVuSans-65" d="M 3597 1894 
L 3597 1613 
L 953 1613 
Q 991 1019 1311 708 
Q 1631 397 2203 397 
Q 2534 397 2845 478 
Q 3156 559 3463 722 
L 3463 178 
Q 3153 47 2828 -22 
Q 2503 -91 2169 -91 
Q 1331 -91 842 396 
Q 353 884 353 1716 
Q 353 2575 817 3079 
Q 1281 3584 2069 3584 
Q 2775 3584 3186 3129 
Q 3597 2675 3597 1894 
z
M 3022 2063 
Q 3016 2534 2758 2815 
Q 2500 3097 2075 3097 
Q 1594 3097 1305 2825 
Q 1016 2553 972 2059 
L 3022 2063 
z
" transform="scale(0.015625)"/>
       <path id="DejaVuSans-6c" d="M 603 4863 
L 1178 4863 
L 1178 0 
L 603 0 
L 603 4863 
z
" transform="scale(0.015625)"/>
      </defs>
      <use xlink:href="#DejaVuSans-4d"/>
      <use xlink:href="#DejaVuSans-6f" x="86.279297"/>
      <use xlink:href="#DejaVuSans-64" x="147.460938"/>
      <use xlink:href="#DejaVuSans-65" x="210.9375"/>
      <use xlink:href="#DejaVuSans-6c" x="272.460938"/>
     </g>
    </g>
   </g>
   <g id="matplotlib.axis_2">
    <g id="ytick_1">
     <g id="line2d_4">
      <defs>
       <path id="m3266ccf45d" d="M 0 0 
L -3.5 0 
" style="stroke: #000000; stroke-width: 0.8"/>
      </defs>
      <g>
       <use xlink:href="#m3266ccf45d" x="27" y="128.16" style="stroke: #000000; stroke-width: 0.8"/>
      </g>
     </g>
     <g id="text_5">
      <!-- 0.0 -->
      <g transform="translate(4.096875 131.959219) scale(0.1 -0.1)">
       <defs>
        <path id="DejaVuSans-2e" d="M 684 794 
L 1344 794 
L 1344 0 
L 684 0 
L 684 794 
z
" transform="scale(0.015625)"/>
       </defs>
       <use xlink:href="#DejaVuSans-30"/>
       <use xlink:href="#DejaVuSans-2e" x="63.623047"/>
       <use xlink:href="#DejaVuSans-30" x="95.410156"/>
      </g>
     </g>
    </g>
    <g id="ytick_2">
     <g id="line2d_5">
      <g>
       <use xlink:href="#m3266ccf45d" x="27" y="103.664782" style="stroke: #000000; stroke-width: 0.8"/>
      </g>
     </g>
     <g id="text_6">
      <!-- 0.2 -->
      <g transform="translate(4.096875 107.464) scale(0.1 -0.1)">
       <defs>
        <path id="DejaVuSans-32" d="M 1228 531 
L 3431 531 
L 3431 0 
L 469 0 
L 469 531 
Q 828 903 1448 1529 
Q 2069 2156 2228 2338 
Q 2531 2678 2651 2914 
Q 2772 3150 2772 3378 
Q 2772 3750 2511 3984 
Q 2250 4219 1831 4219 
Q 1534 4219 1204 4116 
Q 875 4013 500 3803 
L 500 4441 
Q 881 4594 1212 4672 
Q 1544 4750 1819 4750 
Q 2544 4750 2975 4387 
Q 3406 4025 3406 3419 
Q 3406 3131 3298 2873 
Q 3191 2616 2906 2266 
Q 2828 2175 2409 1742 
Q 1991 1309 1228 531 
z
" transform="scale(0.015625)"/>
       </defs>
       <use xlink:href="#DejaVuSans-30"/>
       <use xlink:href="#DejaVuSans-2e" x="63.623047"/>
       <use xlink:href="#DejaVuSans-32" x="95.410156"/>
      </g>
     </g>
    </g>
    <g id="ytick_3">
     <g id="line2d_6">
      <g>
       <use xlink:href="#m3266ccf45d" x="27" y="79.169563" style="stroke: #000000; stroke-width: 0.8"/>
      </g>
     </g>
     <g id="text_7">
      <!-- 0.4 -->
      <g transform="translate(4.096875 82.968782) scale(0.1 -0.1)">
       <defs>
        <path id="DejaVuSans-34" d="M 2419 4116 
L 825 1625 
L 2419 1625 
L 2419 4116 
z
M 2253 4666 
L 3047 4666 
L 3047 1625 
L 3713 1625 
L 3713 1100 
L 3047 1100 
L 3047 0 
L 2419 0 
L 2419 1100 
L 313 1100 
L 313 1709 
L 2253 4666 
z
" transform="scale(0.015625)"/>
       </defs>
       <use xlink:href="#DejaVuSans-30"/>
       <use xlink:href="#DejaVuSans-2e" x="63.623047"/>
       <use xlink:href="#DejaVuSans-34" x="95.410156"/>
      </g>
     </g>
    </g>
    <g id="ytick_4">
     <g id="line2d_7">
      <g>
       <use xlink:href="#m3266ccf45d" x="27" y="54.674345" style="stroke: #000000; stroke-width: 0.8"/>
      </g>
     </g>
     <g id="text_8">
      <!-- 0.6 -->
      <g transform="translate(4.096875 58.473564) scale(0.1 -0.1)">
       <defs>
        <path id="DejaVuSans-36" d="M 2113 2584 
Q 1688 2584 1439 2293 
Q 1191 2003 1191 1497 
Q 1191 994 1439 701 
Q 1688 409 2113 409 
Q 2538 409 2786 701 
Q 3034 994 3034 1497 
Q 3034 2003 2786 2293 
Q 2538 2584 2113 2584 
z
M 3366 4563 
L 3366 3988 
Q 3128 4100 2886 4159 
Q 2644 4219 2406 4219 
Q 1781 4219 1451 3797 
Q 1122 3375 1075 2522 
Q 1259 2794 1537 2939 
Q 1816 3084 2150 3084 
Q 2853 3084 3261 2657 
Q 3669 2231 3669 1497 
Q 3669 778 3244 343 
Q 2819 -91 2113 -91 
Q 1303 -91 875 529 
Q 447 1150 447 2328 
Q 447 3434 972 4092 
Q 1497 4750 2381 4750 
Q 2619 4750 2861 4703 
Q 3103 4656 3366 4563 
z
" transform="scale(0.015625)"/>
       </defs>
       <use xlink:href="#DejaVuSans-30"/>
       <use xlink:href="#DejaVuSans-2e" x="63.623047"/>
       <use xlink:href="#DejaVuSans-36" x="95.410156"/>
      </g>
     </g>
    </g>
    <g id="ytick_5">
     <g id="line2d_8">
      <g>
       <use xlink:href="#m3266ccf45d" x="27" y="30.179127" style="stroke: #000000; stroke-width: 0.8"/>
      </g>
     </g>
     <g id="text_9">
      <!-- 0.8 -->
      <g transform="translate(4.096875 33.978346) scale(0.1 -0.1)">
       <defs>
        <path id="DejaVuSans-38" d="M 2034 2216 
Q 1584 2216 1326 1975 
Q 1069 1734 1069 1313 
Q 1069 891 1326 650 
Q 1584 409 2034 409 
Q 2484 409 2743 651 
Q 3003 894 3003 1313 
Q 3003 1734 2745 1975 
Q 2488 2216 2034 2216 
z
M 1403 2484 
Q 997 2584 770 2862 
Q 544 3141 544 3541 
Q 544 4100 942 4425 
Q 1341 4750 2034 4750 
Q 2731 4750 3128 4425 
Q 3525 4100 3525 3541 
Q 3525 3141 3298 2862 
Q 3072 2584 2669 2484 
Q 3125 2378 3379 2068 
Q 3634 1759 3634 1313 
Q 3634 634 3220 271 
Q 2806 -91 2034 -91 
Q 1263 -91 848 271 
Q 434 634 434 1313 
Q 434 1759 690 2068 
Q 947 2378 1403 2484 
z
M 1172 3481 
Q 1172 3119 1398 2916 
Q 1625 2713 2034 2713 
Q 2441 2713 2670 2916 
Q 2900 3119 2900 3481 
Q 2900 3844 2670 4047 
Q 2441 4250 2034 4250 
Q 1625 4250 1398 4047 
Q 1172 3844 1172 3481 
z
" transform="scale(0.015625)"/>
       </defs>
       <use xlink:href="#DejaVuSans-30"/>
       <use xlink:href="#DejaVuSans-2e" x="63.623047"/>
       <use xlink:href="#DejaVuSans-38" x="95.410156"/>
      </g>
     </g>
    </g>
    <g id="text_10">
     <!-- Correlation -->
     <g transform="translate(-1.982813 100.28875) rotate(-90) scale(0.1 -0.1)">
      <defs>
       <path id="DejaVuSans-72" d="M 2631 2963 
Q 2534 3019 2420 3045 
Q 2306 3072 2169 3072 
Q 1681 3072 1420 2755 
Q 1159 2438 1159 1844 
L 1159 0 
L 581 0 
L 581 3500 
L 1159 3500 
L 1159 2956 
Q 1341 3275 1631 3429 
Q 1922 3584 2338 3584 
Q 2397 3584 2469 3576 
Q 2541 3569 2628 3553 
L 2631 2963 
z
" transform="scale(0.015625)"/>
       <path id="DejaVuSans-61" d="M 2194 1759 
Q 1497 1759 1228 1600 
Q 959 1441 959 1056 
Q 959 750 1161 570 
Q 1363 391 1709 391 
Q 2188 391 2477 730 
Q 2766 1069 2766 1631 
L 2766 1759 
L 2194 1759 
z
M 3341 1997 
L 3341 0 
L 2766 0 
L 2766 531 
Q 2569 213 2275 61 
Q 1981 -91 1556 -91 
Q 1019 -91 701 211 
Q 384 513 384 1019 
Q 384 1609 779 1909 
Q 1175 2209 1959 2209 
L 2766 2209 
L 2766 2266 
Q 2766 2663 2505 2880 
Q 2244 3097 1772 3097 
Q 1472 3097 1187 3025 
Q 903 2953 641 2809 
L 641 3341 
Q 956 3463 1253 3523 
Q 1550 3584 1831 3584 
Q 2591 3584 2966 3190 
Q 3341 2797 3341 1997 
z
" transform="scale(0.015625)"/>
       <path id="DejaVuSans-74" d="M 1172 4494 
L 1172 3500 
L 2356 3500 
L 2356 3053 
L 1172 3053 
L 1172 1153 
Q 1172 725 1289 603 
Q 1406 481 1766 481 
L 2356 481 
L 2356 0 
L 1766 0 
Q 1100 0 847 248 
Q 594 497 594 1153 
L 594 3053 
L 172 3053 
L 172 3500 
L 594 3500 
L 594 4494 
L 1172 4494 
z
" transform="scale(0.015625)"/>
       <path id="DejaVuSans-69" d="M 603 3500 
L 1178 3500 
L 1178 0 
L 603 0 
L 603 3500 
z
M 603 4863 
L 1178 4863 
L 1178 4134 
L 603 4134 
L 603 4863 
z
" transform="scale(0.015625)"/>
       <path id="DejaVuSans-6e" d="M 3513 2113 
L 3513 0 
L 2938 0 
L 2938 2094 
Q 2938 2591 2744 2837 
Q 2550 3084 2163 3084 
Q 1697 3084 1428 2787 
Q 1159 2491 1159 1978 
L 1159 0 
L 581 0 
L 581 3500 
L 1159 3500 
L 1159 2956 
Q 1366 3272 1645 3428 
Q 1925 3584 2291 3584 
Q 2894 3584 3203 3211 
Q 3513 2838 3513 2113 
z
" transform="scale(0.015625)"/>
      </defs>
      <use xlink:href="#DejaVuSans-43"/>
      <use xlink:href="#DejaVuSans-6f" x="69.824219"/>
      <use xlink:href="#DejaVuSans-72" x="131.005859"/>
      <use xlink:href="#DejaVuSans-72" x="170.369141"/>
      <use xlink:href="#DejaVuSans-65" x="209.232422"/>
      <use xlink:href="#DejaVuSans-6c" x="270.755859"/>
      <use xlink:href="#DejaVuSans-61" x="298.539062"/>
      <use xlink:href="#DejaVuSans-74" x="359.818359"/>
      <use xlink:href="#DejaVuSans-69" x="399.027344"/>
      <use xlink:href="#DejaVuSans-6f" x="426.810547"/>
      <use xlink:href="#DejaVuSans-6e" x="487.992188"/>
     </g>
    </g>
   </g>
   <g id="line2d_9">
    <path clip-path="url(#pbf6d1538f8)" style="fill: none; stroke: #424242; stroke-width: 2.25; stroke-linecap: square"/>
   </g>
   <g id="line2d_10">
    <path clip-path="url(#pbf6d1538f8)" style="fill: none; stroke: #424242; stroke-width: 2.25; stroke-linecap: square"/>
   </g>
   <g id="line2d_11">
    <path clip-path="url(#pbf6d1538f8)" style="fill: none; stroke: #424242; stroke-width: 2.25; stroke-linecap: square"/>
   </g>
   <g id="patch_6">
    <path d="M 27 128.16 
L 27 17.28 
" style="fill: none; stroke: #000000; stroke-width: 0.8; stroke-linejoin: miter; stroke-linecap: square"/>
   </g>
   <g id="patch_7">
    <path d="M 194.4 128.16 
L 194.4 17.28 
" style="fill: none; stroke: #000000; stroke-width: 0.8; stroke-linejoin: miter; stroke-linecap: square"/>
   </g>
   <g id="patch_8">
    <path d="M 27 128.16 
L 194.4 128.16 
" style="fill: none; stroke: #000000; stroke-width: 0.8; stroke-linejoin: miter; stroke-linecap: square"/>
   </g>
   <g id="patch_9">
    <path d="M 27 17.28 
L 194.4 17.28 
" style="fill: none; stroke: #000000; stroke-width: 0.8; stroke-linejoin: miter; stroke-linecap: square"/>
   </g>
   <g id="text_11">
    <path d="M 47.164062 29.074797 
Q 47.164062 27.707609 46.907812 27.149797 
Q 46.651562 26.590422 46.045313 26.590422 
Q 45.440625 26.590422 45.18125 27.149797 
Q 44.921875 27.707609 44.921875 29.074797 
Q 44.921875 30.457609 45.18125 31.024797 
Q 45.440625 31.590422 46.045313 31.590422 
Q 46.646875 31.590422 46.904688 31.024797 
Q 47.164062 30.457609 47.164062 29.074797 
z
M 49.04375 29.090422 
Q 49.04375 30.901359 48.2625 31.885734 
Q 47.48125 32.870109 46.045313 32.870109 
Q 44.604687 32.870109 43.823437 31.885734 
Q 43.042187 30.901359 43.042187 29.090422 
Q 43.042187 27.273234 43.823437 26.290422 
Q 44.604687 25.306047 46.045313 25.306047 
Q 47.48125 25.306047 48.2625 26.290422 
Q 49.04375 27.273234 49.04375 29.090422 
z
M 50.542383 30.838859 
L 52.300195 30.838859 
L 52.300195 32.727922 
L 50.542383 32.727922 
L 50.542383 30.838859 
z
M 56.802148 29.465422 
Q 56.275586 29.465422 55.991211 29.754484 
Q 55.708398 30.041984 55.708398 30.579484 
Q 55.708398 31.116984 55.991211 31.402922 
Q 56.275586 31.687297 56.802148 31.687297 
Q 57.325586 31.687297 57.603711 31.402922 
Q 57.881836 31.116984 57.881836 30.579484 
Q 57.881836 30.037297 57.603711 29.751359 
Q 57.325586 29.465422 56.802148 29.465422 
z
M 55.430273 28.846672 
Q 54.766211 28.645109 54.428711 28.231047 
Q 54.092773 27.815422 54.092773 27.195109 
Q 54.092773 26.273234 54.780273 25.790422 
Q 55.469336 25.306047 56.802148 25.306047 
Q 58.125586 25.306047 58.813086 25.787297 
Q 59.502148 26.268547 59.502148 27.195109 
Q 59.502148 27.815422 59.163086 28.231047 
Q 58.824023 28.645109 58.159961 28.846672 
Q 58.902148 29.051359 59.280273 29.512297 
Q 59.658398 29.973234 59.658398 30.676359 
Q 59.658398 31.760734 58.938086 32.315422 
Q 58.217773 32.870109 56.802148 32.870109 
Q 55.381836 32.870109 54.656836 32.315422 
Q 53.931836 31.760734 53.931836 30.676359 
Q 53.931836 29.973234 54.309961 29.512297 
Q 54.688086 29.051359 55.430273 28.846672 
z
M 55.869336 27.385734 
Q 55.869336 27.820109 56.111523 28.054484 
Q 56.353711 28.288859 56.802148 28.288859 
Q 57.241211 28.288859 57.480273 28.054484 
Q 57.720898 27.820109 57.720898 27.385734 
Q 57.720898 26.951359 57.480273 26.720109 
Q 57.241211 26.487297 56.802148 26.487297 
Q 56.353711 26.487297 56.111523 26.721672 
Q 55.869336 26.956047 55.869336 27.385734 
z
M 63.897656 29.129484 
Q 63.403906 29.129484 63.157031 29.449797 
Q 62.910156 29.768547 62.910156 30.409172 
Q 62.910156 31.048234 63.157031 31.368547 
Q 63.403906 31.687297 63.897656 31.687297 
Q 64.394531 31.687297 64.641406 31.368547 
Q 64.888281 31.048234 64.888281 30.409172 
Q 64.888281 29.768547 64.641406 29.449797 
Q 64.394531 29.129484 63.897656 29.129484 
z
M 66.221094 25.627922 
L 66.221094 26.976359 
Q 65.757031 26.756047 65.346094 26.651359 
Q 64.936719 26.546672 64.546094 26.546672 
Q 63.707031 26.546672 63.238281 27.013859 
Q 62.769531 27.479484 62.691406 28.396672 
Q 63.013281 28.157609 63.388281 28.038859 
Q 63.764844 27.918547 64.210156 27.918547 
Q 65.327344 27.918547 66.013281 28.573234 
Q 66.699219 29.226359 66.699219 30.285734 
Q 66.699219 31.457609 65.932031 32.163859 
Q 65.166406 32.870109 63.877344 32.870109 
Q 62.457031 32.870109 61.677344 31.910734 
Q 60.899219 30.949797 60.899219 29.187297 
Q 60.899219 27.381047 61.810156 26.348234 
Q 62.721094 25.315422 64.307031 25.315422 
Q 64.810156 25.315422 65.283594 25.393547 
Q 65.757031 25.471672 66.221094 25.627922 
z
" style="fill: #ffffff; stroke: #000000; stroke-width: 2"/>
    <path d="M 47.164062 29.074797 
Q 47.164062 27.707609 46.907812 27.149797 
Q 46.651562 26.590422 46.045313 26.590422 
Q 45.440625 26.590422 45.18125 27.149797 
Q 44.921875 27.707609 44.921875 29.074797 
Q 44.921875 30.457609 45.18125 31.024797 
Q 45.440625 31.590422 46.045313 31.590422 
Q 46.646875 31.590422 46.904688 31.024797 
Q 47.164062 30.457609 47.164062 29.074797 
z
M 49.04375 29.090422 
Q 49.04375 30.901359 48.2625 31.885734 
Q 47.48125 32.870109 46.045313 32.870109 
Q 44.604687 32.870109 43.823437 31.885734 
Q 43.042187 30.901359 43.042187 29.090422 
Q 43.042187 27.273234 43.823437 26.290422 
Q 44.604687 25.306047 46.045313 25.306047 
Q 47.48125 25.306047 48.2625 26.290422 
Q 49.04375 27.273234 49.04375 29.090422 
z
M 50.542383 30.838859 
L 52.300195 30.838859 
L 52.300195 32.727922 
L 50.542383 32.727922 
L 50.542383 30.838859 
z
M 56.802148 29.465422 
Q 56.275586 29.465422 55.991211 29.754484 
Q 55.708398 30.041984 55.708398 30.579484 
Q 55.708398 31.116984 55.991211 31.402922 
Q 56.275586 31.687297 56.802148 31.687297 
Q 57.325586 31.687297 57.603711 31.402922 
Q 57.881836 31.116984 57.881836 30.579484 
Q 57.881836 30.037297 57.603711 29.751359 
Q 57.325586 29.465422 56.802148 29.465422 
z
M 55.430273 28.846672 
Q 54.766211 28.645109 54.428711 28.231047 
Q 54.092773 27.815422 54.092773 27.195109 
Q 54.092773 26.273234 54.780273 25.790422 
Q 55.469336 25.306047 56.802148 25.306047 
Q 58.125586 25.306047 58.813086 25.787297 
Q 59.502148 26.268547 59.502148 27.195109 
Q 59.502148 27.815422 59.163086 28.231047 
Q 58.824023 28.645109 58.159961 28.846672 
Q 58.902148 29.051359 59.280273 29.512297 
Q 59.658398 29.973234 59.658398 30.676359 
Q 59.658398 31.760734 58.938086 32.315422 
Q 58.217773 32.870109 56.802148 32.870109 
Q 55.381836 32.870109 54.656836 32.315422 
Q 53.931836 31.760734 53.931836 30.676359 
Q 53.931836 29.973234 54.309961 29.512297 
Q 54.688086 29.051359 55.430273 28.846672 
z
M 55.869336 27.385734 
Q 55.869336 27.820109 56.111523 28.054484 
Q 56.353711 28.288859 56.802148 28.288859 
Q 57.241211 28.288859 57.480273 28.054484 
Q 57.720898 27.820109 57.720898 27.385734 
Q 57.720898 26.951359 57.480273 26.720109 
Q 57.241211 26.487297 56.802148 26.487297 
Q 56.353711 26.487297 56.111523 26.721672 
Q 55.869336 26.956047 55.869336 27.385734 
z
M 63.897656 29.129484 
Q 63.403906 29.129484 63.157031 29.449797 
Q 62.910156 29.768547 62.910156 30.409172 
Q 62.910156 31.048234 63.157031 31.368547 
Q 63.403906 31.687297 63.897656 31.687297 
Q 64.394531 31.687297 64.641406 31.368547 
Q 64.888281 31.048234 64.888281 30.409172 
Q 64.888281 29.768547 64.641406 29.449797 
Q 64.394531 29.129484 63.897656 29.129484 
z
M 66.221094 25.627922 
L 66.221094 26.976359 
Q 65.757031 26.756047 65.346094 26.651359 
Q 64.936719 26.546672 64.546094 26.546672 
Q 63.707031 26.546672 63.238281 27.013859 
Q 62.769531 27.479484 62.691406 28.396672 
Q 63.013281 28.157609 63.388281 28.038859 
Q 63.764844 27.918547 64.210156 27.918547 
Q 65.327344 27.918547 66.013281 28.573234 
Q 66.699219 29.226359 66.699219 30.285734 
Q 66.699219 31.457609 65.932031 32.163859 
Q 65.166406 32.870109 63.877344 32.870109 
Q 62.457031 32.870109 61.677344 31.910734 
Q 60.899219 30.949797 60.899219 29.187297 
Q 60.899219 27.381047 61.810156 26.348234 
Q 62.721094 25.315422 64.307031 25.315422 
Q 64.810156 25.315422 65.283594 25.393547 
Q 65.757031 25.471672 66.221094 25.627922 
z
" style="fill: #ffffff"/>
   </g>
   <g id="text_12">
    <path d="M 102.964062 55.576844 
Q 102.964062 54.209656 102.707812 53.651844 
Q 102.451562 53.092469 101.845312 53.092469 
Q 101.240625 53.092469 100.98125 53.651844 
Q 100.721875 54.209656 100.721875 55.576844 
Q 100.721875 56.959656 100.98125 57.526844 
Q 101.240625 58.092469 101.845312 58.092469 
Q 102.446875 58.092469 102.704687 57.526844 
Q 102.964062 56.959656 102.964062 55.576844 
z
M 104.84375 55.592469 
Q 104.84375 57.403406 104.0625 58.387781 
Q 103.28125 59.372156 101.845312 59.372156 
Q 100.404687 59.372156 99.623437 58.387781 
Q 98.842187 57.403406 98.842187 55.592469 
Q 98.842187 53.775281 99.623437 52.792469 
Q 100.404687 51.808094 101.845312 51.808094 
Q 103.28125 51.808094 104.0625 52.792469 
Q 104.84375 53.775281 104.84375 55.592469 
z
M 106.342383 57.340906 
L 108.100195 57.340906 
L 108.100195 59.229969 
L 106.342383 59.229969 
L 106.342383 57.340906 
z
M 112.739648 55.631531 
Q 112.245898 55.631531 111.999023 55.951844 
Q 111.752148 56.270594 111.752148 56.911219 
Q 111.752148 57.550281 111.999023 57.870594 
Q 112.245898 58.189344 112.739648 58.189344 
Q 113.236523 58.189344 113.483398 57.870594 
Q 113.730273 57.550281 113.730273 56.911219 
Q 113.730273 56.270594 113.483398 55.951844 
Q 113.236523 55.631531 112.739648 55.631531 
z
M 115.063086 52.129969 
L 115.063086 53.478406 
Q 114.599023 53.258094 114.188086 53.153406 
Q 113.778711 53.048719 113.388086 53.048719 
Q 112.549023 53.048719 112.080273 53.515906 
Q 111.611523 53.981531 111.533398 54.898719 
Q 111.855273 54.659656 112.230273 54.540906 
Q 112.606836 54.420594 113.052148 54.420594 
Q 114.169336 54.420594 114.855273 55.075281 
Q 115.541211 55.728406 115.541211 56.787781 
Q 115.541211 57.959656 114.774023 58.665906 
Q 114.008398 59.372156 112.719336 59.372156 
Q 111.299023 59.372156 110.519336 58.412781 
Q 109.741211 57.451844 109.741211 55.689344 
Q 109.741211 53.883094 110.652148 52.850281 
Q 111.563086 51.817469 113.149023 51.817469 
Q 113.652148 51.817469 114.125586 51.895594 
Q 114.599023 51.973719 115.063086 52.129969 
z
M 117.138281 51.939344 
L 121.811719 51.939344 
L 121.811719 53.322156 
L 118.638281 53.322156 
L 118.638281 54.450281 
Q 118.852344 54.390906 119.069531 54.359656 
Q 119.286719 54.326844 119.521094 54.326844 
Q 120.853906 54.326844 121.596094 54.994031 
Q 122.338281 55.661219 122.338281 56.851844 
Q 122.338281 58.033094 121.530469 58.703406 
Q 120.722656 59.372156 119.286719 59.372156 
Q 118.666406 59.372156 118.058594 59.251844 
Q 117.450781 59.131531 116.850781 58.887781 
L 116.850781 57.408094 
Q 117.446094 57.750281 117.980469 57.922156 
Q 118.514844 58.092469 118.989844 58.092469 
Q 119.672656 58.092469 120.064844 57.758094 
Q 120.458594 57.423719 120.458594 56.851844 
Q 120.458594 56.275281 120.064844 55.944031 
Q 119.672656 55.611219 118.989844 55.611219 
Q 118.583594 55.611219 118.124219 55.717469 
Q 117.666406 55.822156 117.138281 56.040906 
L 117.138281 51.939344 
z
" style="fill: #ffffff; stroke: #000000; stroke-width: 2"/>
    <path d="M 102.964062 55.576844 
Q 102.964062 54.209656 102.707812 53.651844 
Q 102.451562 53.092469 101.845312 53.092469 
Q 101.240625 53.092469 100.98125 53.651844 
Q 100.721875 54.209656 100.721875 55.576844 
Q 100.721875 56.959656 100.98125 57.526844 
Q 101.240625 58.092469 101.845312 58.092469 
Q 102.446875 58.092469 102.704687 57.526844 
Q 102.964062 56.959656 102.964062 55.576844 
z
M 104.84375 55.592469 
Q 104.84375 57.403406 104.0625 58.387781 
Q 103.28125 59.372156 101.845312 59.372156 
Q 100.404687 59.372156 99.623437 58.387781 
Q 98.842187 57.403406 98.842187 55.592469 
Q 98.842187 53.775281 99.623437 52.792469 
Q 100.404687 51.808094 101.845312 51.808094 
Q 103.28125 51.808094 104.0625 52.792469 
Q 104.84375 53.775281 104.84375 55.592469 
z
M 106.342383 57.340906 
L 108.100195 57.340906 
L 108.100195 59.229969 
L 106.342383 59.229969 
L 106.342383 57.340906 
z
M 112.739648 55.631531 
Q 112.245898 55.631531 111.999023 55.951844 
Q 111.752148 56.270594 111.752148 56.911219 
Q 111.752148 57.550281 111.999023 57.870594 
Q 112.245898 58.189344 112.739648 58.189344 
Q 113.236523 58.189344 113.483398 57.870594 
Q 113.730273 57.550281 113.730273 56.911219 
Q 113.730273 56.270594 113.483398 55.951844 
Q 113.236523 55.631531 112.739648 55.631531 
z
M 115.063086 52.129969 
L 115.063086 53.478406 
Q 114.599023 53.258094 114.188086 53.153406 
Q 113.778711 53.048719 113.388086 53.048719 
Q 112.549023 53.048719 112.080273 53.515906 
Q 111.611523 53.981531 111.533398 54.898719 
Q 111.855273 54.659656 112.230273 54.540906 
Q 112.606836 54.420594 113.052148 54.420594 
Q 114.169336 54.420594 114.855273 55.075281 
Q 115.541211 55.728406 115.541211 56.787781 
Q 115.541211 57.959656 114.774023 58.665906 
Q 114.008398 59.372156 112.719336 59.372156 
Q 111.299023 59.372156 110.519336 58.412781 
Q 109.741211 57.451844 109.741211 55.689344 
Q 109.741211 53.883094 110.652148 52.850281 
Q 111.563086 51.817469 113.149023 51.817469 
Q 113.652148 51.817469 114.125586 51.895594 
Q 114.599023 51.973719 115.063086 52.129969 
z
M 117.138281 51.939344 
L 121.811719 51.939344 
L 121.811719 53.322156 
L 118.638281 53.322156 
L 118.638281 54.450281 
Q 118.852344 54.390906 119.069531 54.359656 
Q 119.286719 54.326844 119.521094 54.326844 
Q 120.853906 54.326844 121.596094 54.994031 
Q 122.338281 55.661219 122.338281 56.851844 
Q 122.338281 58.033094 121.530469 58.703406 
Q 120.722656 59.372156 119.286719 59.372156 
Q 118.666406 59.372156 118.058594 59.251844 
Q 117.450781 59.131531 116.850781 58.887781 
L 116.850781 57.408094 
Q 117.446094 57.750281 117.980469 57.922156 
Q 118.514844 58.092469 118.989844 58.092469 
Q 119.672656 58.092469 120.064844 57.758094 
Q 120.458594 57.423719 120.458594 56.851844 
Q 120.458594 56.275281 120.064844 55.944031 
Q 119.672656 55.611219 118.989844 55.611219 
Q 118.583594 55.611219 118.124219 55.717469 
Q 117.666406 55.822156 117.138281 56.040906 
L 117.138281 51.939344 
z
" style="fill: #ffffff"/>
   </g>
   <g id="text_13">
    <path d="M 158.764062 36.803291 
Q 158.764062 35.436104 158.507812 34.878291 
Q 158.251563 34.318916 157.645312 34.318916 
Q 157.040625 34.318916 156.78125 34.878291 
Q 156.521875 35.436104 156.521875 36.803291 
Q 156.521875 38.186104 156.78125 38.753291 
Q 157.040625 39.318916 157.645312 39.318916 
Q 158.246875 39.318916 158.504687 38.753291 
Q 158.764062 38.186104 158.764062 36.803291 
z
M 160.64375 36.818916 
Q 160.64375 38.629854 159.8625 39.614229 
Q 159.08125 40.598604 157.645312 40.598604 
Q 156.204688 40.598604 155.423438 39.614229 
Q 154.642188 38.629854 154.642188 36.818916 
Q 154.642188 35.001729 155.423438 34.018916 
Q 156.204688 33.034541 157.645312 33.034541 
Q 159.08125 33.034541 159.8625 34.018916 
Q 160.64375 35.001729 160.64375 36.818916 
z
M 162.142383 38.567354 
L 163.900195 38.567354 
L 163.900195 40.456416 
L 162.142383 40.456416 
L 162.142383 38.567354 
z
M 168.402148 37.193916 
Q 167.875586 37.193916 167.591211 37.482979 
Q 167.308398 37.770479 167.308398 38.307979 
Q 167.308398 38.845479 167.591211 39.131416 
Q 167.875586 39.415791 168.402148 39.415791 
Q 168.925586 39.415791 169.203711 39.131416 
Q 169.481836 38.845479 169.481836 38.307979 
Q 169.481836 37.765791 169.203711 37.479854 
Q 168.925586 37.193916 168.402148 37.193916 
z
M 167.030273 36.575166 
Q 166.366211 36.373604 166.028711 35.959541 
Q 165.692773 35.543916 165.692773 34.923604 
Q 165.692773 34.001729 166.380273 33.518916 
Q 167.069336 33.034541 168.402148 33.034541 
Q 169.725586 33.034541 170.413086 33.515791 
Q 171.102148 33.997041 171.102148 34.923604 
Q 171.102148 35.543916 170.763086 35.959541 
Q 170.424023 36.373604 169.759961 36.575166 
Q 170.502148 36.779854 170.880273 37.240791 
Q 171.258398 37.701729 171.258398 38.404854 
Q 171.258398 39.489229 170.538086 40.043916 
Q 169.817773 40.598604 168.402148 40.598604 
Q 166.981836 40.598604 166.256836 40.043916 
Q 165.531836 39.489229 165.531836 38.404854 
Q 165.531836 37.701729 165.909961 37.240791 
Q 166.288086 36.779854 167.030273 36.575166 
z
M 167.469336 35.114229 
Q 167.469336 35.548604 167.711523 35.782979 
Q 167.953711 36.017354 168.402148 36.017354 
Q 168.841211 36.017354 169.080273 35.782979 
Q 169.320898 35.548604 169.320898 35.114229 
Q 169.320898 34.679854 169.080273 34.448604 
Q 168.841211 34.215791 168.402148 34.215791 
Q 167.953711 34.215791 167.711523 34.450166 
Q 167.469336 34.684541 167.469336 35.114229 
z
M 176.478906 36.803291 
Q 176.478906 35.436104 176.222656 34.878291 
Q 175.966406 34.318916 175.360156 34.318916 
Q 174.755469 34.318916 174.496094 34.878291 
Q 174.236719 35.436104 174.236719 36.803291 
Q 174.236719 38.186104 174.496094 38.753291 
Q 174.755469 39.318916 175.360156 39.318916 
Q 175.961719 39.318916 176.219531 38.753291 
Q 176.478906 38.186104 176.478906 36.803291 
z
M 178.358594 36.818916 
Q 178.358594 38.629854 177.577344 39.614229 
Q 176.796094 40.598604 175.360156 40.598604 
Q 173.919531 40.598604 173.138281 39.614229 
Q 172.357031 38.629854 172.357031 36.818916 
Q 172.357031 35.001729 173.138281 34.018916 
Q 173.919531 33.034541 175.360156 33.034541 
Q 176.796094 33.034541 177.577344 34.018916 
Q 178.358594 35.001729 178.358594 36.818916 
z
" style="fill: #ffffff; stroke: #000000; stroke-width: 2"/>
    <path d="M 158.764062 36.803291 
Q 158.764062 35.436104 158.507812 34.878291 
Q 158.251563 34.318916 157.645312 34.318916 
Q 157.040625 34.318916 156.78125 34.878291 
Q 156.521875 35.436104 156.521875 36.803291 
Q 156.521875 38.186104 156.78125 38.753291 
Q 157.040625 39.318916 157.645312 39.318916 
Q 158.246875 39.318916 158.504687 38.753291 
Q 158.764062 38.186104 158.764062 36.803291 
z
M 160.64375 36.818916 
Q 160.64375 38.629854 159.8625 39.614229 
Q 159.08125 40.598604 157.645312 40.598604 
Q 156.204688 40.598604 155.423438 39.614229 
Q 154.642188 38.629854 154.642188 36.818916 
Q 154.642188 35.001729 155.423438 34.018916 
Q 156.204688 33.034541 157.645312 33.034541 
Q 159.08125 33.034541 159.8625 34.018916 
Q 160.64375 35.001729 160.64375 36.818916 
z
M 162.142383 38.567354 
L 163.900195 38.567354 
L 163.900195 40.456416 
L 162.142383 40.456416 
L 162.142383 38.567354 
z
M 168.402148 37.193916 
Q 167.875586 37.193916 167.591211 37.482979 
Q 167.308398 37.770479 167.308398 38.307979 
Q 167.308398 38.845479 167.591211 39.131416 
Q 167.875586 39.415791 168.402148 39.415791 
Q 168.925586 39.415791 169.203711 39.131416 
Q 169.481836 38.845479 169.481836 38.307979 
Q 169.481836 37.765791 169.203711 37.479854 
Q 168.925586 37.193916 168.402148 37.193916 
z
M 167.030273 36.575166 
Q 166.366211 36.373604 166.028711 35.959541 
Q 165.692773 35.543916 165.692773 34.923604 
Q 165.692773 34.001729 166.380273 33.518916 
Q 167.069336 33.034541 168.402148 33.034541 
Q 169.725586 33.034541 170.413086 33.515791 
Q 171.102148 33.997041 171.102148 34.923604 
Q 171.102148 35.543916 170.763086 35.959541 
Q 170.424023 36.373604 169.759961 36.575166 
Q 170.502148 36.779854 170.880273 37.240791 
Q 171.258398 37.701729 171.258398 38.404854 
Q 171.258398 39.489229 170.538086 40.043916 
Q 169.817773 40.598604 168.402148 40.598604 
Q 166.981836 40.598604 166.256836 40.043916 
Q 165.531836 39.489229 165.531836 38.404854 
Q 165.531836 37.701729 165.909961 37.240791 
Q 166.288086 36.779854 167.030273 36.575166 
z
M 167.469336 35.114229 
Q 167.469336 35.548604 167.711523 35.782979 
Q 167.953711 36.017354 168.402148 36.017354 
Q 168.841211 36.017354 169.080273 35.782979 
Q 169.320898 35.548604 169.320898 35.114229 
Q 169.320898 34.679854 169.080273 34.448604 
Q 168.841211 34.215791 168.402148 34.215791 
Q 167.953711 34.215791 167.711523 34.450166 
Q 167.469336 34.684541 167.469336 35.114229 
z
M 176.478906 36.803291 
Q 176.478906 35.436104 176.222656 34.878291 
Q 175.966406 34.318916 175.360156 34.318916 
Q 174.755469 34.318916 174.496094 34.878291 
Q 174.236719 35.436104 174.236719 36.803291 
Q 174.236719 38.186104 174.496094 38.753291 
Q 174.755469 39.318916 175.360156 39.318916 
Q 175.961719 39.318916 176.219531 38.753291 
Q 176.478906 38.186104 176.478906 36.803291 
z
M 178.358594 36.818916 
Q 178.358594 38.629854 177.577344 39.614229 
Q 176.796094 40.598604 175.360156 40.598604 
Q 173.919531 40.598604 173.138281 39.614229 
Q 172.357031 38.629854 172.357031 36.818916 
Q 172.357031 35.001729 173.138281 34.018916 
Q 173.919531 33.034541 175.360156 33.034541 
Q 176.796094 33.034541 177.577344 34.018916 
Q 178.358594 35.001729 178.358594 36.818916 
z
" style="fill: #ffffff"/>
   </g>
   <g id="text_14">
    <!-- Codon Fraction x Accuracy Corr. -->
    <g transform="translate(14.984063 11.28) scale(0.12 -0.12)">
     <defs>
      <path id="DejaVuSans-20" transform="scale(0.015625)"/>
      <path id="DejaVuSans-63" d="M 3122 3366 
L 3122 2828 
Q 2878 2963 2633 3030 
Q 2388 3097 2138 3097 
Q 1578 3097 1268 2742 
Q 959 2388 959 1747 
Q 959 1106 1268 751 
Q 1578 397 2138 397 
Q 2388 397 2633 464 
Q 2878 531 3122 666 
L 3122 134 
Q 2881 22 2623 -34 
Q 2366 -91 2075 -91 
Q 1284 -91 818 406 
Q 353 903 353 1747 
Q 353 2603 823 3093 
Q 1294 3584 2113 3584 
Q 2378 3584 2631 3529 
Q 2884 3475 3122 3366 
z
" transform="scale(0.015625)"/>
      <path id="DejaVuSans-78" d="M 3513 3500 
L 2247 1797 
L 3578 0 
L 2900 0 
L 1881 1375 
L 863 0 
L 184 0 
L 1544 1831 
L 300 3500 
L 978 3500 
L 1906 2253 
L 2834 3500 
L 3513 3500 
z
" transform="scale(0.015625)"/>
      <path id="DejaVuSans-75" d="M 544 1381 
L 544 3500 
L 1119 3500 
L 1119 1403 
Q 1119 906 1312 657 
Q 1506 409 1894 409 
Q 2359 409 2629 706 
Q 2900 1003 2900 1516 
L 2900 3500 
L 3475 3500 
L 3475 0 
L 2900 0 
L 2900 538 
Q 2691 219 2414 64 
Q 2138 -91 1772 -91 
Q 1169 -91 856 284 
Q 544 659 544 1381 
z
M 1991 3584 
L 1991 3584 
z
" transform="scale(0.015625)"/>
      <path id="DejaVuSans-79" d="M 2059 -325 
Q 1816 -950 1584 -1140 
Q 1353 -1331 966 -1331 
L 506 -1331 
L 506 -850 
L 844 -850 
Q 1081 -850 1212 -737 
Q 1344 -625 1503 -206 
L 1606 56 
L 191 3500 
L 800 3500 
L 1894 763 
L 2988 3500 
L 3597 3500 
L 2059 -325 
z
" transform="scale(0.015625)"/>
     </defs>
     <use xlink:href="#DejaVuSans-43"/>
     <use xlink:href="#DejaVuSans-6f" x="69.824219"/>
     <use xlink:href="#DejaVuSans-64" x="131.005859"/>
     <use xlink:href="#DejaVuSans-6f" x="194.482422"/>
     <use xlink:href="#DejaVuSans-6e" x="255.664062"/>
     <use xlink:href="#DejaVuSans-20" x="319.042969"/>
     <use xlink:href="#DejaVuSans-46" x="350.830078"/>
     <use xlink:href="#DejaVuSans-72" x="401.099609"/>
     <use xlink:href="#DejaVuSans-61" x="442.212891"/>
     <use xlink:href="#DejaVuSans-63" x="503.492188"/>
     <use xlink:href="#DejaVuSans-74" x="558.472656"/>
     <use xlink:href="#DejaVuSans-69" x="597.681641"/>
     <use xlink:href="#DejaVuSans-6f" x="625.464844"/>
     <use xlink:href="#DejaVuSans-6e" x="686.646484"/>
     <use xlink:href="#DejaVuSans-20" x="750.025391"/>
     <use xlink:href="#DejaVuSans-78" x="781.8125"/>
     <use xlink:href="#DejaVuSans-20" x="840.992188"/>
     <use xlink:href="#DejaVuSans-41" x="872.779297"/>
     <use xlink:href="#DejaVuSans-63" x="939.4375"/>
     <use xlink:href="#DejaVuSans-63" x="994.417969"/>
     <use xlink:href="#DejaVuSans-75" x="1049.398438"/>
     <use xlink:href="#DejaVuSans-72" x="1112.777344"/>
     <use xlink:href="#DejaVuSans-61" x="1153.890625"/>
     <use xlink:href="#DejaVuSans-63" x="1215.169922"/>
     <use xlink:href="#DejaVuSans-79" x="1270.150391"/>
     <use xlink:href="#DejaVuSans-20" x="1329.330078"/>
     <use xlink:href="#DejaVuSans-43" x="1361.117188"/>
     <use xlink:href="#DejaVuSans-6f" x="1430.941406"/>
     <use xlink:href="#DejaVuSans-72" x="1492.123047"/>
     <use xlink:href="#DejaVuSans-72" x="1531.486328"/>
     <use xlink:href="#DejaVuSans-2e" x="1563.474609"/>
    </g>
   </g>
  </g>
 </g>
 <defs>
  <clipPath id="pbf6d1538f8">
   <rect x="27" y="17.28" width="167.4" height="110.88"/>
  </clipPath>
 </defs>
</svg>
