<?xml version="1.0" encoding="utf-8" standalone="no"?>
<!DOCTYPE svg PUBLIC "-//W3C//DTD SVG 1.1//EN"
  "http://www.w3.org/Graphics/SVG/1.1/DTD/svg11.dtd">
<svg xmlns:xlink="http://www.w3.org/1999/xlink" width="218.38125pt" height="203.787469pt" viewBox="0 0 218.38125 203.787469" xmlns="http://www.w3.org/2000/svg" version="1.1">
 <metadata>
  <rdf:RDF xmlns:dc="http://purl.org/dc/elements/1.1/" xmlns:cc="http://creativecommons.org/ns#" xmlns:rdf="http://www.w3.org/1999/02/22-rdf-syntax-ns#">
   <cc:Work>
    <dc:type rdf:resource="http://purl.org/dc/dcmitype/StillImage"/>
    <dc:date>2025-04-16T12:51:45.168619</dc:date>
    <dc:format>image/svg+xml</dc:format>
    <dc:creator>
     <cc:Agent>
      <dc:title>Matplotlib v3.9.2, https://matplotlib.org/</dc:title>
     </cc:Agent>
    </dc:creator>
   </cc:Work>
  </rdf:RDF>
 </metadata>
 <defs>
  <style type="text/css">*{stroke-linejoin: round; stroke-linecap: butt}</style>
 </defs>
 <g id="figure_1">
  <g id="patch_1">
   <path d="M 0 203.787469 
L 218.38125 203.787469 
L 218.38125 -0 
L 0 -0 
z
" style="fill: #ffffff"/>
  </g>
  <g id="axes_1">
   <g id="patch_2">
    <path d="M 43.78125 166.231219 
L 211.18125 166.231219 
L 211.18125 10.999219 
L 43.78125 10.999219 
z
" style="fill: #ffffff"/>
   </g>
   <g id="patch_3">
    <path d="M 51.390341 259.370419 
L 68.299432 259.370419 
L 68.299432 93.287404 
L 51.390341 93.287404 
z
" clip-path="url(#pa4c4b43121)" style="fill: #008000"/>
   </g>
   <g id="patch_4">
    <path d="M 135.935795 259.370419 
L 152.844886 259.370419 
L 152.844886 99.588153 
L 135.935795 99.588153 
z
" clip-path="url(#pa4c4b43121)" style="fill: #008000"/>
   </g>
   <g id="patch_5">
    <path d="M 68.299432 259.370419 
L 85.208523 259.370419 
L 85.208523 95.132716 
L 68.299432 95.132716 
z
" clip-path="url(#pa4c4b43121)" style="fill: #ffa500"/>
   </g>
   <g id="patch_6">
    <path d="M 152.844886 259.370419 
L 169.753977 259.370419 
L 169.753977 100.285688 
L 152.844886 100.285688 
z
" clip-path="url(#pa4c4b43121)" style="fill: #ffa500"/>
   </g>
   <g id="patch_7">
    <path d="M 85.208523 259.370419 
L 102.117614 259.370419 
L 102.117614 114.949935 
L 85.208523 114.949935 
z
" clip-path="url(#pa4c4b43121)" style="fill: #ff0000"/>
   </g>
   <g id="patch_8">
    <path d="M 169.753977 259.370419 
L 186.663068 259.370419 
L 186.663068 121.171131 
L 169.753977 121.171131 
z
" clip-path="url(#pa4c4b43121)" style="fill: #ff0000"/>
   </g>
   <g id="patch_9">
    <path d="M 102.117614 259.370419 
L 119.026705 259.370419 
L 119.026705 115.754065 
L 102.117614 115.754065 
z
" clip-path="url(#pa4c4b43121)" style="fill: #0000ff"/>
   </g>
   <g id="patch_10">
    <path d="M 186.663068 259.370419 
L 203.572159 259.370419 
L 203.572159 121.537781 
L 186.663068 121.537781 
z
" clip-path="url(#pa4c4b43121)" style="fill: #0000ff"/>
   </g>
   <g id="matplotlib.axis_1">
    <g id="xtick_1">
     <g id="line2d_1">
      <defs>
       <path id="me24d557fb2" d="M 0 0 
L 0 3.5 
" style="stroke: #000000; stroke-width: 0.8"/>
      </defs>
      <g>
       <use xlink:href="#me24d557fb2" x="85.208523" y="166.231219" style="stroke: #000000; stroke-width: 0.8"/>
      </g>
     </g>
     <g id="text_1">
      <!-- Canonical -->
      <g transform="translate(60.664773 180.829656) scale(0.1 -0.1)">
       <defs>
        <path id="DejaVuSans-43" d="M 4122 4306 
L 4122 3641 
Q 3803 3938 3442 4084 
Q 3081 4231 2675 4231 
Q 1875 4231 1450 3742 
Q 1025 3253 1025 2328 
Q 1025 1406 1450 917 
Q 1875 428 2675 428 
Q 3081 428 3442 575 
Q 3803 722 4122 1019 
L 4122 359 
Q 3791 134 3420 21 
Q 3050 -91 2638 -91 
Q 1578 -91 968 557 
Q 359 1206 359 2328 
Q 359 3453 968 4101 
Q 1578 4750 2638 4750 
Q 3056 4750 3426 4639 
Q 3797 4528 4122 4306 
z
" transform="scale(0.015625)"/>
        <path id="DejaVuSans-61" d="M 2194 1759 
Q 1497 1759 1228 1600 
Q 959 1441 959 1056 
Q 959 750 1161 570 
Q 1363 391 1709 391 
Q 2188 391 2477 730 
Q 2766 1069 2766 1631 
L 2766 1759 
L 2194 1759 
z
M 3341 1997 
L 3341 0 
L 2766 0 
L 2766 531 
Q 2569 213 2275 61 
Q 1981 -91 1556 -91 
Q 1019 -91 701 211 
Q 384 513 384 1019 
Q 384 1609 779 1909 
Q 1175 2209 1959 2209 
L 2766 2209 
L 2766 2266 
Q 2766 2663 2505 2880 
Q 2244 3097 1772 3097 
Q 1472 3097 1187 3025 
Q 903 2953 641 2809 
L 641 3341 
Q 956 3463 1253 3523 
Q 1550 3584 1831 3584 
Q 2591 3584 2966 3190 
Q 3341 2797 3341 1997 
z
" transform="scale(0.015625)"/>
        <path id="DejaVuSans-6e" d="M 3513 2113 
L 3513 0 
L 2938 0 
L 2938 2094 
Q 2938 2591 2744 2837 
Q 2550 3084 2163 3084 
Q 1697 3084 1428 2787 
Q 1159 2491 1159 1978 
L 1159 0 
L 581 0 
L 581 3500 
L 1159 3500 
L 1159 2956 
Q 1366 3272 1645 3428 
Q 1925 3584 2291 3584 
Q 2894 3584 3203 3211 
Q 3513 2838 3513 2113 
z
" transform="scale(0.015625)"/>
        <path id="DejaVuSans-6f" d="M 1959 3097 
Q 1497 3097 1228 2736 
Q 959 2375 959 1747 
Q 959 1119 1226 758 
Q 1494 397 1959 397 
Q 2419 397 2687 759 
Q 2956 1122 2956 1747 
Q 2956 2369 2687 2733 
Q 2419 3097 1959 3097 
z
M 1959 3584 
Q 2709 3584 3137 3096 
Q 3566 2609 3566 1747 
Q 3566 888 3137 398 
Q 2709 -91 1959 -91 
Q 1206 -91 779 398 
Q 353 888 353 1747 
Q 353 2609 779 3096 
Q 1206 3584 1959 3584 
z
" transform="scale(0.015625)"/>
        <path id="DejaVuSans-69" d="M 603 3500 
L 1178 3500 
L 1178 0 
L 603 0 
L 603 3500 
z
M 603 4863 
L 1178 4863 
L 1178 4134 
L 603 4134 
L 603 4863 
z
" transform="scale(0.015625)"/>
        <path id="DejaVuSans-63" d="M 3122 3366 
L 3122 2828 
Q 2878 2963 2633 3030 
Q 2388 3097 2138 3097 
Q 1578 3097 1268 2742 
Q 959 2388 959 1747 
Q 959 1106 1268 751 
Q 1578 397 2138 397 
Q 2388 397 2633 464 
Q 2878 531 3122 666 
L 3122 134 
Q 2881 22 2623 -34 
Q 2366 -91 2075 -91 
Q 1284 -91 818 406 
Q 353 903 353 1747 
Q 353 2603 823 3093 
Q 1294 3584 2113 3584 
Q 2378 3584 2631 3529 
Q 2884 3475 3122 3366 
z
" transform="scale(0.015625)"/>
        <path id="DejaVuSans-6c" d="M 603 4863 
L 1178 4863 
L 1178 0 
L 603 0 
L 603 4863 
z
" transform="scale(0.015625)"/>
       </defs>
       <use xlink:href="#DejaVuSans-43"/>
       <use xlink:href="#DejaVuSans-61" x="69.824219"/>
       <use xlink:href="#DejaVuSans-6e" x="131.103516"/>
       <use xlink:href="#DejaVuSans-6f" x="194.482422"/>
       <use xlink:href="#DejaVuSans-6e" x="255.664062"/>
       <use xlink:href="#DejaVuSans-69" x="319.042969"/>
       <use xlink:href="#DejaVuSans-63" x="346.826172"/>
       <use xlink:href="#DejaVuSans-61" x="401.806641"/>
       <use xlink:href="#DejaVuSans-6c" x="463.085938"/>
      </g>
     </g>
    </g>
    <g id="xtick_2">
     <g id="line2d_2">
      <g>
       <use xlink:href="#me24d557fb2" x="169.753977" y="166.231219" style="stroke: #000000; stroke-width: 0.8"/>
      </g>
     </g>
     <g id="text_2">
      <!-- Non-Canonical -->
      <g transform="translate(133.437571 180.829656) scale(0.1 -0.1)">
       <defs>
        <path id="DejaVuSans-4e" d="M 628 4666 
L 1478 4666 
L 3547 763 
L 3547 4666 
L 4159 4666 
L 4159 0 
L 3309 0 
L 1241 3903 
L 1241 0 
L 628 0 
L 628 4666 
z
" transform="scale(0.015625)"/>
        <path id="DejaVuSans-2d" d="M 313 2009 
L 1997 2009 
L 1997 1497 
L 313 1497 
L 313 2009 
z
" transform="scale(0.015625)"/>
       </defs>
       <use xlink:href="#DejaVuSans-4e"/>
       <use xlink:href="#DejaVuSans-6f" x="74.804688"/>
       <use xlink:href="#DejaVuSans-6e" x="135.986328"/>
       <use xlink:href="#DejaVuSans-2d" x="199.365234"/>
       <use xlink:href="#DejaVuSans-43" x="235.449219"/>
       <use xlink:href="#DejaVuSans-61" x="305.273438"/>
       <use xlink:href="#DejaVuSans-6e" x="366.552734"/>
       <use xlink:href="#DejaVuSans-6f" x="429.931641"/>
       <use xlink:href="#DejaVuSans-6e" x="491.113281"/>
       <use xlink:href="#DejaVuSans-69" x="554.492188"/>
       <use xlink:href="#DejaVuSans-63" x="582.275391"/>
       <use xlink:href="#DejaVuSans-61" x="637.255859"/>
       <use xlink:href="#DejaVuSans-6c" x="698.535156"/>
      </g>
     </g>
    </g>
    <g id="text_3">
     <!-- Ensembl Transcript Type -->
     <g transform="translate(66.839844 194.507781) scale(0.1 -0.1)">
      <defs>
       <path id="DejaVuSans-45" d="M 628 4666 
L 3578 4666 
L 3578 4134 
L 1259 4134 
L 1259 2753 
L 3481 2753 
L 3481 2222 
L 1259 2222 
L 1259 531 
L 3634 531 
L 3634 0 
L 628 0 
L 628 4666 
z
" transform="scale(0.015625)"/>
       <path id="DejaVuSans-73" d="M 2834 3397 
L 2834 2853 
Q 2591 2978 2328 3040 
Q 2066 3103 1784 3103 
Q 1356 3103 1142 2972 
Q 928 2841 928 2578 
Q 928 2378 1081 2264 
Q 1234 2150 1697 2047 
L 1894 2003 
Q 2506 1872 2764 1633 
Q 3022 1394 3022 966 
Q 3022 478 2636 193 
Q 2250 -91 1575 -91 
Q 1294 -91 989 -36 
Q 684 19 347 128 
L 347 722 
Q 666 556 975 473 
Q 1284 391 1588 391 
Q 1994 391 2212 530 
Q 2431 669 2431 922 
Q 2431 1156 2273 1281 
Q 2116 1406 1581 1522 
L 1381 1569 
Q 847 1681 609 1914 
Q 372 2147 372 2553 
Q 372 3047 722 3315 
Q 1072 3584 1716 3584 
Q 2034 3584 2315 3537 
Q 2597 3491 2834 3397 
z
" transform="scale(0.015625)"/>
       <path id="DejaVuSans-65" d="M 3597 1894 
L 3597 1613 
L 953 1613 
Q 991 1019 1311 708 
Q 1631 397 2203 397 
Q 2534 397 2845 478 
Q 3156 559 3463 722 
L 3463 178 
Q 3153 47 2828 -22 
Q 2503 -91 2169 -91 
Q 1331 -91 842 396 
Q 353 884 353 1716 
Q 353 2575 817 3079 
Q 1281 3584 2069 3584 
Q 2775 3584 3186 3129 
Q 3597 2675 3597 1894 
z
M 3022 2063 
Q 3016 2534 2758 2815 
Q 2500 3097 2075 3097 
Q 1594 3097 1305 2825 
Q 1016 2553 972 2059 
L 3022 2063 
z
" transform="scale(0.015625)"/>
       <path id="DejaVuSans-6d" d="M 3328 2828 
Q 3544 3216 3844 3400 
Q 4144 3584 4550 3584 
Q 5097 3584 5394 3201 
Q 5691 2819 5691 2113 
L 5691 0 
L 5113 0 
L 5113 2094 
Q 5113 2597 4934 2840 
Q 4756 3084 4391 3084 
Q 3944 3084 3684 2787 
Q 3425 2491 3425 1978 
L 3425 0 
L 2847 0 
L 2847 2094 
Q 2847 2600 2669 2842 
Q 2491 3084 2119 3084 
Q 1678 3084 1418 2786 
Q 1159 2488 1159 1978 
L 1159 0 
L 581 0 
L 581 3500 
L 1159 3500 
L 1159 2956 
Q 1356 3278 1631 3431 
Q 1906 3584 2284 3584 
Q 2666 3584 2933 3390 
Q 3200 3197 3328 2828 
z
" transform="scale(0.015625)"/>
       <path id="DejaVuSans-62" d="M 3116 1747 
Q 3116 2381 2855 2742 
Q 2594 3103 2138 3103 
Q 1681 3103 1420 2742 
Q 1159 2381 1159 1747 
Q 1159 1113 1420 752 
Q 1681 391 2138 391 
Q 2594 391 2855 752 
Q 3116 1113 3116 1747 
z
M 1159 2969 
Q 1341 3281 1617 3432 
Q 1894 3584 2278 3584 
Q 2916 3584 3314 3078 
Q 3713 2572 3713 1747 
Q 3713 922 3314 415 
Q 2916 -91 2278 -91 
Q 1894 -91 1617 61 
Q 1341 213 1159 525 
L 1159 0 
L 581 0 
L 581 4863 
L 1159 4863 
L 1159 2969 
z
" transform="scale(0.015625)"/>
       <path id="DejaVuSans-20" transform="scale(0.015625)"/>
       <path id="DejaVuSans-54" d="M -19 4666 
L 3928 4666 
L 3928 4134 
L 2272 4134 
L 2272 0 
L 1638 0 
L 1638 4134 
L -19 4134 
L -19 4666 
z
" transform="scale(0.015625)"/>
       <path id="DejaVuSans-72" d="M 2631 2963 
Q 2534 3019 2420 3045 
Q 2306 3072 2169 3072 
Q 1681 3072 1420 2755 
Q 1159 2438 1159 1844 
L 1159 0 
L 581 0 
L 581 3500 
L 1159 3500 
L 1159 2956 
Q 1341 3275 1631 3429 
Q 1922 3584 2338 3584 
Q 2397 3584 2469 3576 
Q 2541 3569 2628 3553 
L 2631 2963 
z
" transform="scale(0.015625)"/>
       <path id="DejaVuSans-70" d="M 1159 525 
L 1159 -1331 
L 581 -1331 
L 581 3500 
L 1159 3500 
L 1159 2969 
Q 1341 3281 1617 3432 
Q 1894 3584 2278 3584 
Q 2916 3584 3314 3078 
Q 3713 2572 3713 1747 
Q 3713 922 3314 415 
Q 2916 -91 2278 -91 
Q 1894 -91 1617 61 
Q 1341 213 1159 525 
z
M 3116 1747 
Q 3116 2381 2855 2742 
Q 2594 3103 2138 3103 
Q 1681 3103 1420 2742 
Q 1159 2381 1159 1747 
Q 1159 1113 1420 752 
Q 1681 391 2138 391 
Q 2594 391 2855 752 
Q 3116 1113 3116 1747 
z
" transform="scale(0.015625)"/>
       <path id="DejaVuSans-74" d="M 1172 4494 
L 1172 3500 
L 2356 3500 
L 2356 3053 
L 1172 3053 
L 1172 1153 
Q 1172 725 1289 603 
Q 1406 481 1766 481 
L 2356 481 
L 2356 0 
L 1766 0 
Q 1100 0 847 248 
Q 594 497 594 1153 
L 594 3053 
L 172 3053 
L 172 3500 
L 594 3500 
L 594 4494 
L 1172 4494 
z
" transform="scale(0.015625)"/>
       <path id="DejaVuSans-79" d="M 2059 -325 
Q 1816 -950 1584 -1140 
Q 1353 -1331 966 -1331 
L 506 -1331 
L 506 -850 
L 844 -850 
Q 1081 -850 1212 -737 
Q 1344 -625 1503 -206 
L 1606 56 
L 191 3500 
L 800 3500 
L 1894 763 
L 2988 3500 
L 3597 3500 
L 2059 -325 
z
" transform="scale(0.015625)"/>
      </defs>
      <use xlink:href="#DejaVuSans-45"/>
      <use xlink:href="#DejaVuSans-6e" x="63.183594"/>
      <use xlink:href="#DejaVuSans-73" x="126.5625"/>
      <use xlink:href="#DejaVuSans-65" x="178.662109"/>
      <use xlink:href="#DejaVuSans-6d" x="240.185547"/>
      <use xlink:href="#DejaVuSans-62" x="337.597656"/>
      <use xlink:href="#DejaVuSans-6c" x="401.074219"/>
      <use xlink:href="#DejaVuSans-20" x="428.857422"/>
      <use xlink:href="#DejaVuSans-54" x="460.644531"/>
      <use xlink:href="#DejaVuSans-72" x="506.978516"/>
      <use xlink:href="#DejaVuSans-61" x="548.091797"/>
      <use xlink:href="#DejaVuSans-6e" x="609.371094"/>
      <use xlink:href="#DejaVuSans-73" x="672.75"/>
      <use xlink:href="#DejaVuSans-63" x="724.849609"/>
      <use xlink:href="#DejaVuSans-72" x="779.830078"/>
      <use xlink:href="#DejaVuSans-69" x="820.943359"/>
      <use xlink:href="#DejaVuSans-70" x="848.726562"/>
      <use xlink:href="#DejaVuSans-74" x="912.203125"/>
      <use xlink:href="#DejaVuSans-20" x="951.412109"/>
      <use xlink:href="#DejaVuSans-54" x="983.199219"/>
      <use xlink:href="#DejaVuSans-79" x="1028.658203"/>
      <use xlink:href="#DejaVuSans-70" x="1087.837891"/>
      <use xlink:href="#DejaVuSans-65" x="1151.314453"/>
     </g>
    </g>
   </g>
   <g id="matplotlib.axis_2">
    <g id="ytick_1">
     <g id="line2d_3">
      <path d="M 43.78125 166.231219 
L 211.18125 166.231219 
" clip-path="url(#pa4c4b43121)" style="fill: none; stroke: #b0b0b0; stroke-width: 0.8; stroke-linecap: square"/>
     </g>
     <g id="line2d_4">
      <defs>
       <path id="mfc93c95e87" d="M 0 0 
L -3.5 0 
" style="stroke: #000000; stroke-width: 0.8"/>
      </defs>
      <g>
       <use xlink:href="#mfc93c95e87" x="43.78125" y="166.231219" style="stroke: #000000; stroke-width: 0.8"/>
      </g>
     </g>
     <g id="text_4">
      <!-- 0.3 -->
      <g transform="translate(20.878125 170.030438) scale(0.1 -0.1)">
       <defs>
        <path id="DejaVuSans-30" d="M 2034 4250 
Q 1547 4250 1301 3770 
Q 1056 3291 1056 2328 
Q 1056 1369 1301 889 
Q 1547 409 2034 409 
Q 2525 409 2770 889 
Q 3016 1369 3016 2328 
Q 3016 3291 2770 3770 
Q 2525 4250 2034 4250 
z
M 2034 4750 
Q 2819 4750 3233 4129 
Q 3647 3509 3647 2328 
Q 3647 1150 3233 529 
Q 2819 -91 2034 -91 
Q 1250 -91 836 529 
Q 422 1150 422 2328 
Q 422 3509 836 4129 
Q 1250 4750 2034 4750 
z
" transform="scale(0.015625)"/>
        <path id="DejaVuSans-2e" d="M 684 794 
L 1344 794 
L 1344 0 
L 684 0 
L 684 794 
z
" transform="scale(0.015625)"/>
        <path id="DejaVuSans-33" d="M 2597 2516 
Q 3050 2419 3304 2112 
Q 3559 1806 3559 1356 
Q 3559 666 3084 287 
Q 2609 -91 1734 -91 
Q 1441 -91 1130 -33 
Q 819 25 488 141 
L 488 750 
Q 750 597 1062 519 
Q 1375 441 1716 441 
Q 2309 441 2620 675 
Q 2931 909 2931 1356 
Q 2931 1769 2642 2001 
Q 2353 2234 1838 2234 
L 1294 2234 
L 1294 2753 
L 1863 2753 
Q 2328 2753 2575 2939 
Q 2822 3125 2822 3475 
Q 2822 3834 2567 4026 
Q 2313 4219 1838 4219 
Q 1578 4219 1281 4162 
Q 984 4106 628 3988 
L 628 4550 
Q 988 4650 1302 4700 
Q 1616 4750 1894 4750 
Q 2613 4750 3031 4423 
Q 3450 4097 3450 3541 
Q 3450 3153 3228 2886 
Q 3006 2619 2597 2516 
z
" transform="scale(0.015625)"/>
       </defs>
       <use xlink:href="#DejaVuSans-30"/>
       <use xlink:href="#DejaVuSans-2e" x="63.623047"/>
       <use xlink:href="#DejaVuSans-33" x="95.410156"/>
      </g>
     </g>
    </g>
    <g id="ytick_2">
     <g id="line2d_5">
      <path d="M 43.78125 135.184819 
L 211.18125 135.184819 
" clip-path="url(#pa4c4b43121)" style="fill: none; stroke: #b0b0b0; stroke-width: 0.8; stroke-linecap: square"/>
     </g>
     <g id="line2d_6">
      <g>
       <use xlink:href="#mfc93c95e87" x="43.78125" y="135.184819" style="stroke: #000000; stroke-width: 0.8"/>
      </g>
     </g>
     <g id="text_5">
      <!-- 0.4 -->
      <g transform="translate(20.878125 138.984037) scale(0.1 -0.1)">
       <defs>
        <path id="DejaVuSans-34" d="M 2419 4116 
L 825 1625 
L 2419 1625 
L 2419 4116 
z
M 2253 4666 
L 3047 4666 
L 3047 1625 
L 3713 1625 
L 3713 1100 
L 3047 1100 
L 3047 0 
L 2419 0 
L 2419 1100 
L 313 1100 
L 313 1709 
L 2253 4666 
z
" transform="scale(0.015625)"/>
       </defs>
       <use xlink:href="#DejaVuSans-30"/>
       <use xlink:href="#DejaVuSans-2e" x="63.623047"/>
       <use xlink:href="#DejaVuSans-34" x="95.410156"/>
      </g>
     </g>
    </g>
    <g id="ytick_3">
     <g id="line2d_7">
      <path d="M 43.78125 104.138419 
L 211.18125 104.138419 
" clip-path="url(#pa4c4b43121)" style="fill: none; stroke: #b0b0b0; stroke-width: 0.8; stroke-linecap: square"/>
     </g>
     <g id="line2d_8">
      <g>
       <use xlink:href="#mfc93c95e87" x="43.78125" y="104.138419" style="stroke: #000000; stroke-width: 0.8"/>
      </g>
     </g>
     <g id="text_6">
      <!-- 0.5 -->
      <g transform="translate(20.878125 107.937638) scale(0.1 -0.1)">
       <defs>
        <path id="DejaVuSans-35" d="M 691 4666 
L 3169 4666 
L 3169 4134 
L 1269 4134 
L 1269 2991 
Q 1406 3038 1543 3061 
Q 1681 3084 1819 3084 
Q 2600 3084 3056 2656 
Q 3513 2228 3513 1497 
Q 3513 744 3044 326 
Q 2575 -91 1722 -91 
Q 1428 -91 1123 -41 
Q 819 9 494 109 
L 494 744 
Q 775 591 1075 516 
Q 1375 441 1709 441 
Q 2250 441 2565 725 
Q 2881 1009 2881 1497 
Q 2881 1984 2565 2268 
Q 2250 2553 1709 2553 
Q 1456 2553 1204 2497 
Q 953 2441 691 2322 
L 691 4666 
z
" transform="scale(0.015625)"/>
       </defs>
       <use xlink:href="#DejaVuSans-30"/>
       <use xlink:href="#DejaVuSans-2e" x="63.623047"/>
       <use xlink:href="#DejaVuSans-35" x="95.410156"/>
      </g>
     </g>
    </g>
    <g id="ytick_4">
     <g id="line2d_9">
      <path d="M 43.78125 73.092019 
L 211.18125 73.092019 
" clip-path="url(#pa4c4b43121)" style="fill: none; stroke: #b0b0b0; stroke-width: 0.8; stroke-linecap: square"/>
     </g>
     <g id="line2d_10">
      <g>
       <use xlink:href="#mfc93c95e87" x="43.78125" y="73.092019" style="stroke: #000000; stroke-width: 0.8"/>
      </g>
     </g>
     <g id="text_7">
      <!-- 0.6 -->
      <g transform="translate(20.878125 76.891237) scale(0.1 -0.1)">
       <defs>
        <path id="DejaVuSans-36" d="M 2113 2584 
Q 1688 2584 1439 2293 
Q 1191 2003 1191 1497 
Q 1191 994 1439 701 
Q 1688 409 2113 409 
Q 2538 409 2786 701 
Q 3034 994 3034 1497 
Q 3034 2003 2786 2293 
Q 2538 2584 2113 2584 
z
M 3366 4563 
L 3366 3988 
Q 3128 4100 2886 4159 
Q 2644 4219 2406 4219 
Q 1781 4219 1451 3797 
Q 1122 3375 1075 2522 
Q 1259 2794 1537 2939 
Q 1816 3084 2150 3084 
Q 2853 3084 3261 2657 
Q 3669 2231 3669 1497 
Q 3669 778 3244 343 
Q 2819 -91 2113 -91 
Q 1303 -91 875 529 
Q 447 1150 447 2328 
Q 447 3434 972 4092 
Q 1497 4750 2381 4750 
Q 2619 4750 2861 4703 
Q 3103 4656 3366 4563 
z
" transform="scale(0.015625)"/>
       </defs>
       <use xlink:href="#DejaVuSans-30"/>
       <use xlink:href="#DejaVuSans-2e" x="63.623047"/>
       <use xlink:href="#DejaVuSans-36" x="95.410156"/>
      </g>
     </g>
    </g>
    <g id="ytick_5">
     <g id="line2d_11">
      <path d="M 43.78125 42.045619 
L 211.18125 42.045619 
" clip-path="url(#pa4c4b43121)" style="fill: none; stroke: #b0b0b0; stroke-width: 0.8; stroke-linecap: square"/>
     </g>
     <g id="line2d_12">
      <g>
       <use xlink:href="#mfc93c95e87" x="43.78125" y="42.045619" style="stroke: #000000; stroke-width: 0.8"/>
      </g>
     </g>
     <g id="text_8">
      <!-- 0.7 -->
      <g transform="translate(20.878125 45.844838) scale(0.1 -0.1)">
       <defs>
        <path id="DejaVuSans-37" d="M 525 4666 
L 3525 4666 
L 3525 4397 
L 1831 0 
L 1172 0 
L 2766 4134 
L 525 4134 
L 525 4666 
z
" transform="scale(0.015625)"/>
       </defs>
       <use xlink:href="#DejaVuSans-30"/>
       <use xlink:href="#DejaVuSans-2e" x="63.623047"/>
       <use xlink:href="#DejaVuSans-37" x="95.410156"/>
      </g>
     </g>
    </g>
    <g id="ytick_6">
     <g id="line2d_13">
      <path d="M 43.78125 10.999219 
L 211.18125 10.999219 
" clip-path="url(#pa4c4b43121)" style="fill: none; stroke: #b0b0b0; stroke-width: 0.8; stroke-linecap: square"/>
     </g>
     <g id="line2d_14">
      <g>
       <use xlink:href="#mfc93c95e87" x="43.78125" y="10.999219" style="stroke: #000000; stroke-width: 0.8"/>
      </g>
     </g>
     <g id="text_9">
      <!-- 0.8 -->
      <g transform="translate(20.878125 14.798438) scale(0.1 -0.1)">
       <defs>
        <path id="DejaVuSans-38" d="M 2034 2216 
Q 1584 2216 1326 1975 
Q 1069 1734 1069 1313 
Q 1069 891 1326 650 
Q 1584 409 2034 409 
Q 2484 409 2743 651 
Q 3003 894 3003 1313 
Q 3003 1734 2745 1975 
Q 2488 2216 2034 2216 
z
M 1403 2484 
Q 997 2584 770 2862 
Q 544 3141 544 3541 
Q 544 4100 942 4425 
Q 1341 4750 2034 4750 
Q 2731 4750 3128 4425 
Q 3525 4100 3525 3541 
Q 3525 3141 3298 2862 
Q 3072 2584 2669 2484 
Q 3125 2378 3379 2068 
Q 3634 1759 3634 1313 
Q 3634 634 3220 271 
Q 2806 -91 2034 -91 
Q 1263 -91 848 271 
Q 434 634 434 1313 
Q 434 1759 690 2068 
Q 947 2378 1403 2484 
z
M 1172 3481 
Q 1172 3119 1398 2916 
Q 1625 2713 2034 2713 
Q 2441 2713 2670 2916 
Q 2900 3119 2900 3481 
Q 2900 3844 2670 4047 
Q 2441 4250 2034 4250 
Q 1625 4250 1398 4047 
Q 1172 3844 1172 3481 
z
" transform="scale(0.015625)"/>
       </defs>
       <use xlink:href="#DejaVuSans-30"/>
       <use xlink:href="#DejaVuSans-2e" x="63.623047"/>
       <use xlink:href="#DejaVuSans-38" x="95.410156"/>
      </g>
     </g>
    </g>
    <g id="text_10">
     <!-- Mean Accuracy -->
     <g transform="translate(14.798437 126.655844) rotate(-90) scale(0.1 -0.1)">
      <defs>
       <path id="DejaVuSans-4d" d="M 628 4666 
L 1569 4666 
L 2759 1491 
L 3956 4666 
L 4897 4666 
L 4897 0 
L 4281 0 
L 4281 4097 
L 3078 897 
L 2444 897 
L 1241 4097 
L 1241 0 
L 628 0 
L 628 4666 
z
" transform="scale(0.015625)"/>
       <path id="DejaVuSans-41" d="M 2188 4044 
L 1331 1722 
L 3047 1722 
L 2188 4044 
z
M 1831 4666 
L 2547 4666 
L 4325 0 
L 3669 0 
L 3244 1197 
L 1141 1197 
L 716 0 
L 50 0 
L 1831 4666 
z
" transform="scale(0.015625)"/>
       <path id="DejaVuSans-75" d="M 544 1381 
L 544 3500 
L 1119 3500 
L 1119 1403 
Q 1119 906 1312 657 
Q 1506 409 1894 409 
Q 2359 409 2629 706 
Q 2900 1003 2900 1516 
L 2900 3500 
L 3475 3500 
L 3475 0 
L 2900 0 
L 2900 538 
Q 2691 219 2414 64 
Q 2138 -91 1772 -91 
Q 1169 -91 856 284 
Q 544 659 544 1381 
z
M 1991 3584 
L 1991 3584 
z
" transform="scale(0.015625)"/>
      </defs>
      <use xlink:href="#DejaVuSans-4d"/>
      <use xlink:href="#DejaVuSans-65" x="86.279297"/>
      <use xlink:href="#DejaVuSans-61" x="147.802734"/>
      <use xlink:href="#DejaVuSans-6e" x="209.082031"/>
      <use xlink:href="#DejaVuSans-20" x="272.460938"/>
      <use xlink:href="#DejaVuSans-41" x="304.248047"/>
      <use xlink:href="#DejaVuSans-63" x="370.90625"/>
      <use xlink:href="#DejaVuSans-63" x="425.886719"/>
      <use xlink:href="#DejaVuSans-75" x="480.867188"/>
      <use xlink:href="#DejaVuSans-72" x="544.246094"/>
      <use xlink:href="#DejaVuSans-61" x="585.359375"/>
      <use xlink:href="#DejaVuSans-63" x="646.638672"/>
      <use xlink:href="#DejaVuSans-79" x="701.619141"/>
     </g>
    </g>
   </g>
   <g id="LineCollection_1">
    <path d="M 59.844886 117.523739 
L 59.844886 69.05107 
" clip-path="url(#pa4c4b43121)" style="fill: none; stroke: #000000; stroke-width: 1.5"/>
    <path d="M 144.390341 123.384306 
L 144.390341 75.792 
" clip-path="url(#pa4c4b43121)" style="fill: none; stroke: #000000; stroke-width: 1.5"/>
   </g>
   <g id="line2d_15">
    <defs>
     <path id="mbe73336fc0" d="M 5 0 
L -5 -0 
" style="stroke: #000000"/>
    </defs>
    <g clip-path="url(#pa4c4b43121)">
     <use xlink:href="#mbe73336fc0" x="59.844886" y="117.523739" style="stroke: #000000"/>
     <use xlink:href="#mbe73336fc0" x="144.390341" y="123.384306" style="stroke: #000000"/>
    </g>
   </g>
   <g id="line2d_16">
    <g clip-path="url(#pa4c4b43121)">
     <use xlink:href="#mbe73336fc0" x="59.844886" y="69.05107" style="stroke: #000000"/>
     <use xlink:href="#mbe73336fc0" x="144.390341" y="75.792" style="stroke: #000000"/>
    </g>
   </g>
   <g id="LineCollection_2">
    <path d="M 76.753977 119.011177 
L 76.753977 71.254255 
" clip-path="url(#pa4c4b43121)" style="fill: none; stroke: #000000; stroke-width: 1.5"/>
    <path d="M 161.299432 124.798506 
L 161.299432 75.77287 
" clip-path="url(#pa4c4b43121)" style="fill: none; stroke: #000000; stroke-width: 1.5"/>
   </g>
   <g id="line2d_17">
    <g clip-path="url(#pa4c4b43121)">
     <use xlink:href="#mbe73336fc0" x="76.753977" y="119.011177" style="stroke: #000000"/>
     <use xlink:href="#mbe73336fc0" x="161.299432" y="124.798506" style="stroke: #000000"/>
    </g>
   </g>
   <g id="line2d_18">
    <g clip-path="url(#pa4c4b43121)">
     <use xlink:href="#mbe73336fc0" x="76.753977" y="71.254255" style="stroke: #000000"/>
     <use xlink:href="#mbe73336fc0" x="161.299432" y="75.77287" style="stroke: #000000"/>
    </g>
   </g>
   <g id="LineCollection_3">
    <path d="M 93.663068 151.863409 
L 93.663068 78.03646 
" clip-path="url(#pa4c4b43121)" style="fill: none; stroke: #000000; stroke-width: 1.5"/>
    <path d="M 178.208523 156.351216 
L 178.208523 85.991045 
" clip-path="url(#pa4c4b43121)" style="fill: none; stroke: #000000; stroke-width: 1.5"/>
   </g>
   <g id="line2d_19">
    <g clip-path="url(#pa4c4b43121)">
     <use xlink:href="#mbe73336fc0" x="93.663068" y="151.863409" style="stroke: #000000"/>
     <use xlink:href="#mbe73336fc0" x="178.208523" y="156.351216" style="stroke: #000000"/>
    </g>
   </g>
   <g id="line2d_20">
    <g clip-path="url(#pa4c4b43121)">
     <use xlink:href="#mbe73336fc0" x="93.663068" y="78.03646" style="stroke: #000000"/>
     <use xlink:href="#mbe73336fc0" x="178.208523" y="85.991045" style="stroke: #000000"/>
    </g>
   </g>
   <g id="LineCollection_4">
    <path d="M 110.572159 151.09509 
L 110.572159 80.41304 
" clip-path="url(#pa4c4b43121)" style="fill: none; stroke: #000000; stroke-width: 1.5"/>
    <path d="M 195.117614 155.179506 
L 195.117614 87.896057 
" clip-path="url(#pa4c4b43121)" style="fill: none; stroke: #000000; stroke-width: 1.5"/>
   </g>
   <g id="line2d_21">
    <g clip-path="url(#pa4c4b43121)">
     <use xlink:href="#mbe73336fc0" x="110.572159" y="151.09509" style="stroke: #000000"/>
     <use xlink:href="#mbe73336fc0" x="195.117614" y="155.179506" style="stroke: #000000"/>
    </g>
   </g>
   <g id="line2d_22">
    <g clip-path="url(#pa4c4b43121)">
     <use xlink:href="#mbe73336fc0" x="110.572159" y="80.41304" style="stroke: #000000"/>
     <use xlink:href="#mbe73336fc0" x="195.117614" y="87.896057" style="stroke: #000000"/>
    </g>
   </g>
   <g id="patch_11">
    <path d="M 43.78125 166.231219 
L 43.78125 10.999219 
" style="fill: none; stroke: #000000; stroke-width: 0.8; stroke-linejoin: miter; stroke-linecap: square"/>
   </g>
   <g id="patch_12">
    <path d="M 211.18125 166.231219 
L 211.18125 10.999219 
" style="fill: none; stroke: #000000; stroke-width: 0.8; stroke-linejoin: miter; stroke-linecap: square"/>
   </g>
   <g id="patch_13">
    <path d="M 43.78125 166.231219 
L 211.18125 166.231219 
" style="fill: none; stroke: #000000; stroke-width: 0.8; stroke-linejoin: miter; stroke-linecap: square"/>
   </g>
   <g id="patch_14">
    <path d="M 43.78125 10.999219 
L 211.18125 10.999219 
" style="fill: none; stroke: #000000; stroke-width: 0.8; stroke-linejoin: miter; stroke-linecap: square"/>
   </g>
   <g id="text_11">
    <path d="M 48.630043 62.318257 
Q 48.630043 60.95107 48.373793 60.393257 
Q 48.117543 59.833882 47.511293 59.833882 
Q 46.906605 59.833882 46.64723 60.393257 
Q 46.387855 60.95107 46.387855 62.318257 
Q 46.387855 63.70107 46.64723 64.268257 
Q 46.906605 64.833882 47.511293 64.833882 
Q 48.112855 64.833882 48.370668 64.268257 
Q 48.630043 63.70107 48.630043 62.318257 
z
M 50.50973 62.333882 
Q 50.50973 64.14482 49.72848 65.129195 
Q 48.94723 66.11357 47.511293 66.11357 
Q 46.070668 66.11357 45.289418 65.129195 
Q 44.508168 64.14482 44.508168 62.333882 
Q 44.508168 60.516695 45.289418 59.533882 
Q 46.070668 58.549507 47.511293 58.549507 
Q 48.94723 58.549507 49.72848 59.533882 
Q 50.50973 60.516695 50.50973 62.333882 
z
M 52.008363 64.08232 
L 53.766175 64.08232 
L 53.766175 65.971382 
L 52.008363 65.971382 
L 52.008363 64.08232 
z
M 55.846254 58.680757 
L 60.519691 58.680757 
L 60.519691 60.06357 
L 57.346254 60.06357 
L 57.346254 61.191695 
Q 57.560316 61.13232 57.777504 61.10107 
Q 57.994691 61.068257 58.229066 61.068257 
Q 59.561879 61.068257 60.304066 61.735445 
Q 61.046254 62.402632 61.046254 63.593257 
Q 61.046254 64.774507 60.238441 65.44482 
Q 59.430629 66.11357 57.994691 66.11357 
Q 57.374379 66.11357 56.766566 65.993257 
Q 56.158754 65.872945 55.558754 65.629195 
L 55.558754 64.149507 
Q 56.154066 64.491695 56.688441 64.66357 
Q 57.222816 64.833882 57.697816 64.833882 
Q 58.380629 64.833882 58.772816 64.499507 
Q 59.166566 64.165132 59.166566 63.593257 
Q 59.166566 63.016695 58.772816 62.685445 
Q 58.380629 62.352632 57.697816 62.352632 
Q 57.291566 62.352632 56.832191 62.458882 
Q 56.374379 62.56357 55.846254 62.78232 
L 55.846254 58.680757 
z
M 66.402699 62.040132 
Q 67.140199 62.230757 67.523011 62.702632 
Q 67.907386 63.172945 67.907386 63.90107 
Q 67.907386 64.985445 67.076136 65.549507 
Q 66.246449 66.11357 64.655824 66.11357 
Q 64.093324 66.11357 63.529261 66.022945 
Q 62.965199 65.93232 62.413636 65.75107 
L 62.413636 64.30107 
Q 62.941761 64.565132 63.460511 64.699507 
Q 63.980824 64.833882 64.483949 64.833882 
Q 65.230824 64.833882 65.629261 64.57607 
Q 66.027699 64.316695 66.027699 63.83232 
Q 66.027699 63.333882 65.619886 63.077632 
Q 65.212074 62.821382 64.415199 62.821382 
L 63.663636 62.821382 
L 63.663636 61.610445 
L 64.454261 61.610445 
Q 65.163636 61.610445 65.508949 61.38857 
Q 65.855824 61.166695 65.855824 60.712007 
Q 65.855824 60.293257 65.518324 60.06357 
Q 65.182386 59.833882 64.566761 59.833882 
Q 64.113636 59.833882 63.649574 59.937007 
Q 63.185511 60.03857 62.726136 60.23857 
L 62.726136 58.862007 
Q 63.282386 58.705757 63.829261 58.627632 
Q 64.376136 58.549507 64.904261 58.549507 
Q 66.324574 58.549507 67.029261 59.016695 
Q 67.735511 59.48232 67.735511 60.41982 
Q 67.735511 61.058882 67.398011 61.466695 
Q 67.062074 61.874507 66.402699 62.040132 
z
M 69.762269 58.680757 
L 74.435707 58.680757 
L 74.435707 60.06357 
L 71.262269 60.06357 
L 71.262269 61.191695 
Q 71.476332 61.13232 71.693519 61.10107 
Q 71.910707 61.068257 72.145082 61.068257 
Q 73.477894 61.068257 74.220082 61.735445 
Q 74.962269 62.402632 74.962269 63.593257 
Q 74.962269 64.774507 74.154457 65.44482 
Q 73.346644 66.11357 71.910707 66.11357 
Q 71.290394 66.11357 70.682582 65.993257 
Q 70.074769 65.872945 69.474769 65.629195 
L 69.474769 64.149507 
Q 70.070082 64.491695 70.604457 64.66357 
Q 71.138832 64.833882 71.613832 64.833882 
Q 72.296644 64.833882 72.688832 64.499507 
Q 73.082582 64.165132 73.082582 63.593257 
Q 73.082582 63.016695 72.688832 62.685445 
Q 72.296644 62.352632 71.613832 62.352632 
Q 71.207582 62.352632 70.748207 62.458882 
Q 70.290394 62.56357 69.762269 62.78232 
L 69.762269 58.680757 
z
" style="fill: #ffffff; stroke: #000000; stroke-width: 2"/>
    <path d="M 48.630043 62.318257 
Q 48.630043 60.95107 48.373793 60.393257 
Q 48.117543 59.833882 47.511293 59.833882 
Q 46.906605 59.833882 46.64723 60.393257 
Q 46.387855 60.95107 46.387855 62.318257 
Q 46.387855 63.70107 46.64723 64.268257 
Q 46.906605 64.833882 47.511293 64.833882 
Q 48.112855 64.833882 48.370668 64.268257 
Q 48.630043 63.70107 48.630043 62.318257 
z
M 50.50973 62.333882 
Q 50.50973 64.14482 49.72848 65.129195 
Q 48.94723 66.11357 47.511293 66.11357 
Q 46.070668 66.11357 45.289418 65.129195 
Q 44.508168 64.14482 44.508168 62.333882 
Q 44.508168 60.516695 45.289418 59.533882 
Q 46.070668 58.549507 47.511293 58.549507 
Q 48.94723 58.549507 49.72848 59.533882 
Q 50.50973 60.516695 50.50973 62.333882 
z
M 52.008363 64.08232 
L 53.766175 64.08232 
L 53.766175 65.971382 
L 52.008363 65.971382 
L 52.008363 64.08232 
z
M 55.846254 58.680757 
L 60.519691 58.680757 
L 60.519691 60.06357 
L 57.346254 60.06357 
L 57.346254 61.191695 
Q 57.560316 61.13232 57.777504 61.10107 
Q 57.994691 61.068257 58.229066 61.068257 
Q 59.561879 61.068257 60.304066 61.735445 
Q 61.046254 62.402632 61.046254 63.593257 
Q 61.046254 64.774507 60.238441 65.44482 
Q 59.430629 66.11357 57.994691 66.11357 
Q 57.374379 66.11357 56.766566 65.993257 
Q 56.158754 65.872945 55.558754 65.629195 
L 55.558754 64.149507 
Q 56.154066 64.491695 56.688441 64.66357 
Q 57.222816 64.833882 57.697816 64.833882 
Q 58.380629 64.833882 58.772816 64.499507 
Q 59.166566 64.165132 59.166566 63.593257 
Q 59.166566 63.016695 58.772816 62.685445 
Q 58.380629 62.352632 57.697816 62.352632 
Q 57.291566 62.352632 56.832191 62.458882 
Q 56.374379 62.56357 55.846254 62.78232 
L 55.846254 58.680757 
z
M 66.402699 62.040132 
Q 67.140199 62.230757 67.523011 62.702632 
Q 67.907386 63.172945 67.907386 63.90107 
Q 67.907386 64.985445 67.076136 65.549507 
Q 66.246449 66.11357 64.655824 66.11357 
Q 64.093324 66.11357 63.529261 66.022945 
Q 62.965199 65.93232 62.413636 65.75107 
L 62.413636 64.30107 
Q 62.941761 64.565132 63.460511 64.699507 
Q 63.980824 64.833882 64.483949 64.833882 
Q 65.230824 64.833882 65.629261 64.57607 
Q 66.027699 64.316695 66.027699 63.83232 
Q 66.027699 63.333882 65.619886 63.077632 
Q 65.212074 62.821382 64.415199 62.821382 
L 63.663636 62.821382 
L 63.663636 61.610445 
L 64.454261 61.610445 
Q 65.163636 61.610445 65.508949 61.38857 
Q 65.855824 61.166695 65.855824 60.712007 
Q 65.855824 60.293257 65.518324 60.06357 
Q 65.182386 59.833882 64.566761 59.833882 
Q 64.113636 59.833882 63.649574 59.937007 
Q 63.185511 60.03857 62.726136 60.23857 
L 62.726136 58.862007 
Q 63.282386 58.705757 63.829261 58.627632 
Q 64.376136 58.549507 64.904261 58.549507 
Q 66.324574 58.549507 67.029261 59.016695 
Q 67.735511 59.48232 67.735511 60.41982 
Q 67.735511 61.058882 67.398011 61.466695 
Q 67.062074 61.874507 66.402699 62.040132 
z
M 69.762269 58.680757 
L 74.435707 58.680757 
L 74.435707 60.06357 
L 71.262269 60.06357 
L 71.262269 61.191695 
Q 71.476332 61.13232 71.693519 61.10107 
Q 71.910707 61.068257 72.145082 61.068257 
Q 73.477894 61.068257 74.220082 61.735445 
Q 74.962269 62.402632 74.962269 63.593257 
Q 74.962269 64.774507 74.154457 65.44482 
Q 73.346644 66.11357 71.910707 66.11357 
Q 71.290394 66.11357 70.682582 65.993257 
Q 70.074769 65.872945 69.474769 65.629195 
L 69.474769 64.149507 
Q 70.070082 64.491695 70.604457 64.66357 
Q 71.138832 64.833882 71.613832 64.833882 
Q 72.296644 64.833882 72.688832 64.499507 
Q 73.082582 64.165132 73.082582 63.593257 
Q 73.082582 63.016695 72.688832 62.685445 
Q 72.296644 62.352632 71.613832 62.352632 
Q 71.207582 62.352632 70.748207 62.458882 
Q 70.290394 62.56357 69.762269 62.78232 
L 69.762269 58.680757 
z
" style="fill: #ffffff"/>
   </g>
   <g id="text_12">
    <path d="M 133.175497 69.059188 
Q 133.175497 67.692 132.919247 67.134188 
Q 132.662997 66.574813 132.056747 66.574813 
Q 131.45206 66.574813 131.192685 67.134188 
Q 130.93331 67.692 130.93331 69.059188 
Q 130.93331 70.442 131.192685 71.009188 
Q 131.45206 71.574813 132.056747 71.574813 
Q 132.65831 71.574813 132.916122 71.009188 
Q 133.175497 70.442 133.175497 69.059188 
z
M 135.055185 69.074813 
Q 135.055185 70.88575 134.273935 71.870125 
Q 133.492685 72.8545 132.056747 72.8545 
Q 130.616122 72.8545 129.834872 71.870125 
Q 129.053622 70.88575 129.053622 69.074813 
Q 129.053622 67.257625 129.834872 66.274813 
Q 130.616122 65.290438 132.056747 65.290438 
Q 133.492685 65.290438 134.273935 66.274813 
Q 135.055185 67.257625 135.055185 69.074813 
z
M 136.553817 70.82325 
L 138.31163 70.82325 
L 138.31163 72.712313 
L 136.553817 72.712313 
L 136.553817 70.82325 
z
M 140.391708 65.421688 
L 145.065146 65.421688 
L 145.065146 66.8045 
L 141.891708 66.8045 
L 141.891708 67.932625 
Q 142.105771 67.87325 142.322958 67.842 
Q 142.540146 67.809188 142.774521 67.809188 
Q 144.107333 67.809188 144.849521 68.476375 
Q 145.591708 69.143563 145.591708 70.334188 
Q 145.591708 71.515438 144.783896 72.18575 
Q 143.976083 72.8545 142.540146 72.8545 
Q 141.919833 72.8545 141.312021 72.734188 
Q 140.704208 72.613875 140.104208 72.370125 
L 140.104208 70.890438 
Q 140.699521 71.232625 141.233896 71.4045 
Q 141.768271 71.574813 142.243271 71.574813 
Q 142.926083 71.574813 143.318271 71.240438 
Q 143.712021 70.906063 143.712021 70.334188 
Q 143.712021 69.757625 143.318271 69.426375 
Q 142.926083 69.093563 142.243271 69.093563 
Q 141.837021 69.093563 141.377646 69.199813 
Q 140.919833 69.3045 140.391708 69.52325 
L 140.391708 65.421688 
z
M 147.462216 71.413875 
L 149.123153 71.413875 
L 149.123153 66.701375 
L 147.418466 67.052938 
L 147.418466 65.77325 
L 149.112216 65.421688 
L 150.899716 65.421688 
L 150.899716 71.413875 
L 152.560653 71.413875 
L 152.560653 72.712313 
L 147.462216 72.712313 
L 147.462216 71.413875 
z
M 154.307724 65.421688 
L 158.981161 65.421688 
L 158.981161 66.8045 
L 155.807724 66.8045 
L 155.807724 67.932625 
Q 156.021786 67.87325 156.238974 67.842 
Q 156.456161 67.809188 156.690536 67.809188 
Q 158.023349 67.809188 158.765536 68.476375 
Q 159.507724 69.143563 159.507724 70.334188 
Q 159.507724 71.515438 158.699911 72.18575 
Q 157.892099 72.8545 156.456161 72.8545 
Q 155.835849 72.8545 155.228036 72.734188 
Q 154.620224 72.613875 154.020224 72.370125 
L 154.020224 70.890438 
Q 154.615536 71.232625 155.149911 71.4045 
Q 155.684286 71.574813 156.159286 71.574813 
Q 156.842099 71.574813 157.234286 71.240438 
Q 157.628036 70.906063 157.628036 70.334188 
Q 157.628036 69.757625 157.234286 69.426375 
Q 156.842099 69.093563 156.159286 69.093563 
Q 155.753036 69.093563 155.293661 69.199813 
Q 154.835849 69.3045 154.307724 69.52325 
L 154.307724 65.421688 
z
" style="fill: #ffffff; stroke: #000000; stroke-width: 2"/>
    <path d="M 133.175497 69.059188 
Q 133.175497 67.692 132.919247 67.134188 
Q 132.662997 66.574813 132.056747 66.574813 
Q 131.45206 66.574813 131.192685 67.134188 
Q 130.93331 67.692 130.93331 69.059188 
Q 130.93331 70.442 131.192685 71.009188 
Q 131.45206 71.574813 132.056747 71.574813 
Q 132.65831 71.574813 132.916122 71.009188 
Q 133.175497 70.442 133.175497 69.059188 
z
M 135.055185 69.074813 
Q 135.055185 70.88575 134.273935 71.870125 
Q 133.492685 72.8545 132.056747 72.8545 
Q 130.616122 72.8545 129.834872 71.870125 
Q 129.053622 70.88575 129.053622 69.074813 
Q 129.053622 67.257625 129.834872 66.274813 
Q 130.616122 65.290438 132.056747 65.290438 
Q 133.492685 65.290438 134.273935 66.274813 
Q 135.055185 67.257625 135.055185 69.074813 
z
M 136.553817 70.82325 
L 138.31163 70.82325 
L 138.31163 72.712313 
L 136.553817 72.712313 
L 136.553817 70.82325 
z
M 140.391708 65.421688 
L 145.065146 65.421688 
L 145.065146 66.8045 
L 141.891708 66.8045 
L 141.891708 67.932625 
Q 142.105771 67.87325 142.322958 67.842 
Q 142.540146 67.809188 142.774521 67.809188 
Q 144.107333 67.809188 144.849521 68.476375 
Q 145.591708 69.143563 145.591708 70.334188 
Q 145.591708 71.515438 144.783896 72.18575 
Q 143.976083 72.8545 142.540146 72.8545 
Q 141.919833 72.8545 141.312021 72.734188 
Q 140.704208 72.613875 140.104208 72.370125 
L 140.104208 70.890438 
Q 140.699521 71.232625 141.233896 71.4045 
Q 141.768271 71.574813 142.243271 71.574813 
Q 142.926083 71.574813 143.318271 71.240438 
Q 143.712021 70.906063 143.712021 70.334188 
Q 143.712021 69.757625 143.318271 69.426375 
Q 142.926083 69.093563 142.243271 69.093563 
Q 141.837021 69.093563 141.377646 69.199813 
Q 140.919833 69.3045 140.391708 69.52325 
L 140.391708 65.421688 
z
M 147.462216 71.413875 
L 149.123153 71.413875 
L 149.123153 66.701375 
L 147.418466 67.052938 
L 147.418466 65.77325 
L 149.112216 65.421688 
L 150.899716 65.421688 
L 150.899716 71.413875 
L 152.560653 71.413875 
L 152.560653 72.712313 
L 147.462216 72.712313 
L 147.462216 71.413875 
z
M 154.307724 65.421688 
L 158.981161 65.421688 
L 158.981161 66.8045 
L 155.807724 66.8045 
L 155.807724 67.932625 
Q 156.021786 67.87325 156.238974 67.842 
Q 156.456161 67.809188 156.690536 67.809188 
Q 158.023349 67.809188 158.765536 68.476375 
Q 159.507724 69.143563 159.507724 70.334188 
Q 159.507724 71.515438 158.699911 72.18575 
Q 157.892099 72.8545 156.456161 72.8545 
Q 155.835849 72.8545 155.228036 72.734188 
Q 154.620224 72.613875 154.020224 72.370125 
L 154.020224 70.890438 
Q 154.615536 71.232625 155.149911 71.4045 
Q 155.684286 71.574813 156.159286 71.574813 
Q 156.842099 71.574813 157.234286 71.240438 
Q 157.628036 70.906063 157.628036 70.334188 
Q 157.628036 69.757625 157.234286 69.426375 
Q 156.842099 69.093563 156.159286 69.093563 
Q 155.753036 69.093563 155.293661 69.199813 
Q 154.835849 69.3045 154.307724 69.52325 
L 154.307724 65.421688 
z
" style="fill: #ffffff"/>
   </g>
   <g id="text_13">
    <path d="M 65.539134 78.521443 
Q 65.539134 77.154255 65.282884 76.596443 
Q 65.026634 76.037068 64.420384 76.037068 
Q 63.815696 76.037068 63.556321 76.596443 
Q 63.296946 77.154255 63.296946 78.521443 
Q 63.296946 79.904255 63.556321 80.471443 
Q 63.815696 81.037068 64.420384 81.037068 
Q 65.021946 81.037068 65.279759 80.471443 
Q 65.539134 79.904255 65.539134 78.521443 
z
M 67.418821 78.537068 
Q 67.418821 80.348005 66.637571 81.33238 
Q 65.856321 82.316755 64.420384 82.316755 
Q 62.979759 82.316755 62.198509 81.33238 
Q 61.417259 80.348005 61.417259 78.537068 
Q 61.417259 76.71988 62.198509 75.737068 
Q 62.979759 74.752693 64.420384 74.752693 
Q 65.856321 74.752693 66.637571 75.737068 
Q 67.418821 76.71988 67.418821 78.537068 
z
M 68.917454 80.285505 
L 70.675266 80.285505 
L 70.675266 82.174568 
L 68.917454 82.174568 
L 68.917454 80.285505 
z
M 72.755344 74.883943 
L 77.428782 74.883943 
L 77.428782 76.266755 
L 74.255344 76.266755 
L 74.255344 77.39488 
Q 74.469407 77.335505 74.686594 77.304255 
Q 74.903782 77.271443 75.138157 77.271443 
Q 76.470969 77.271443 77.213157 77.93863 
Q 77.955344 78.605818 77.955344 79.796443 
Q 77.955344 80.977693 77.147532 81.648005 
Q 76.339719 82.316755 74.903782 82.316755 
Q 74.283469 82.316755 73.675657 82.196443 
Q 73.067844 82.07613 72.467844 81.83238 
L 72.467844 80.352693 
Q 73.063157 80.69488 73.597532 80.866755 
Q 74.131907 81.037068 74.606907 81.037068 
Q 75.289719 81.037068 75.681907 80.702693 
Q 76.075657 80.368318 76.075657 79.796443 
Q 76.075657 79.21988 75.681907 78.88863 
Q 75.289719 78.555818 74.606907 78.555818 
Q 74.200657 78.555818 73.741282 78.662068 
Q 73.283469 78.766755 72.755344 78.985505 
L 72.755344 74.883943 
z
M 81.535227 80.793318 
L 84.74304 80.793318 
L 84.74304 82.174568 
L 79.444602 82.174568 
L 79.444602 80.793318 
L 82.10554 78.443318 
Q 82.463352 78.121443 82.633665 77.81363 
Q 82.803977 77.505818 82.803977 77.174568 
Q 82.803977 76.662068 82.460227 76.349568 
Q 82.116477 76.037068 81.544602 76.037068 
Q 81.10554 76.037068 80.582102 76.224568 
Q 80.060227 76.412068 79.464915 76.783943 
L 79.464915 75.18238 
Q 80.09929 74.973005 80.719602 74.86363 
Q 81.339915 74.752693 81.935227 74.752693 
Q 83.244602 74.752693 83.969602 75.329255 
Q 84.694602 75.904255 84.694602 76.935505 
Q 84.694602 77.530818 84.38679 78.046443 
Q 84.078977 78.560505 83.09304 79.42613 
L 81.535227 80.793318 
z
M 86.613548 82.01363 
L 86.613548 80.665193 
Q 87.061985 80.87613 87.47136 80.980818 
Q 87.882298 81.085505 88.282298 81.085505 
Q 89.122923 81.085505 89.591673 80.61988 
Q 90.060423 80.152693 90.143235 79.235505 
Q 89.811985 79.479255 89.435423 79.60113 
Q 89.05886 79.723005 88.619798 79.723005 
Q 87.501048 79.723005 86.81511 79.071443 
Q 86.129173 78.41988 86.129173 77.355818 
Q 86.129173 76.177693 86.893235 75.46988 
Q 87.657298 74.762068 88.941673 74.762068 
Q 90.368235 74.762068 91.149485 75.724568 
Q 91.930735 76.685505 91.930735 78.443318 
Q 91.930735 80.25113 91.016673 81.283943 
Q 90.104173 82.316755 88.511985 82.316755 
Q 87.999485 82.316755 87.530735 82.240193 
Q 87.061985 82.165193 86.613548 82.01363 
z
M 88.932298 78.502693 
Q 89.426048 78.502693 89.674485 78.183943 
Q 89.922923 77.86363 89.922923 77.223005 
Q 89.922923 76.58863 89.674485 76.266755 
Q 89.426048 75.943318 88.932298 75.943318 
Q 88.438548 75.943318 88.19011 76.266755 
Q 87.941673 76.58863 87.941673 77.223005 
Q 87.941673 77.86363 88.19011 78.183943 
Q 88.438548 78.502693 88.932298 78.502693 
z
" style="fill: #ffffff; stroke: #000000; stroke-width: 2"/>
    <path d="M 65.539134 78.521443 
Q 65.539134 77.154255 65.282884 76.596443 
Q 65.026634 76.037068 64.420384 76.037068 
Q 63.815696 76.037068 63.556321 76.596443 
Q 63.296946 77.154255 63.296946 78.521443 
Q 63.296946 79.904255 63.556321 80.471443 
Q 63.815696 81.037068 64.420384 81.037068 
Q 65.021946 81.037068 65.279759 80.471443 
Q 65.539134 79.904255 65.539134 78.521443 
z
M 67.418821 78.537068 
Q 67.418821 80.348005 66.637571 81.33238 
Q 65.856321 82.316755 64.420384 82.316755 
Q 62.979759 82.316755 62.198509 81.33238 
Q 61.417259 80.348005 61.417259 78.537068 
Q 61.417259 76.71988 62.198509 75.737068 
Q 62.979759 74.752693 64.420384 74.752693 
Q 65.856321 74.752693 66.637571 75.737068 
Q 67.418821 76.71988 67.418821 78.537068 
z
M 68.917454 80.285505 
L 70.675266 80.285505 
L 70.675266 82.174568 
L 68.917454 82.174568 
L 68.917454 80.285505 
z
M 72.755344 74.883943 
L 77.428782 74.883943 
L 77.428782 76.266755 
L 74.255344 76.266755 
L 74.255344 77.39488 
Q 74.469407 77.335505 74.686594 77.304255 
Q 74.903782 77.271443 75.138157 77.271443 
Q 76.470969 77.271443 77.213157 77.93863 
Q 77.955344 78.605818 77.955344 79.796443 
Q 77.955344 80.977693 77.147532 81.648005 
Q 76.339719 82.316755 74.903782 82.316755 
Q 74.283469 82.316755 73.675657 82.196443 
Q 73.067844 82.07613 72.467844 81.83238 
L 72.467844 80.352693 
Q 73.063157 80.69488 73.597532 80.866755 
Q 74.131907 81.037068 74.606907 81.037068 
Q 75.289719 81.037068 75.681907 80.702693 
Q 76.075657 80.368318 76.075657 79.796443 
Q 76.075657 79.21988 75.681907 78.88863 
Q 75.289719 78.555818 74.606907 78.555818 
Q 74.200657 78.555818 73.741282 78.662068 
Q 73.283469 78.766755 72.755344 78.985505 
L 72.755344 74.883943 
z
M 81.535227 80.793318 
L 84.74304 80.793318 
L 84.74304 82.174568 
L 79.444602 82.174568 
L 79.444602 80.793318 
L 82.10554 78.443318 
Q 82.463352 78.121443 82.633665 77.81363 
Q 82.803977 77.505818 82.803977 77.174568 
Q 82.803977 76.662068 82.460227 76.349568 
Q 82.116477 76.037068 81.544602 76.037068 
Q 81.10554 76.037068 80.582102 76.224568 
Q 80.060227 76.412068 79.464915 76.783943 
L 79.464915 75.18238 
Q 80.09929 74.973005 80.719602 74.86363 
Q 81.339915 74.752693 81.935227 74.752693 
Q 83.244602 74.752693 83.969602 75.329255 
Q 84.694602 75.904255 84.694602 76.935505 
Q 84.694602 77.530818 84.38679 78.046443 
Q 84.078977 78.560505 83.09304 79.42613 
L 81.535227 80.793318 
z
M 86.613548 82.01363 
L 86.613548 80.665193 
Q 87.061985 80.87613 87.47136 80.980818 
Q 87.882298 81.085505 88.282298 81.085505 
Q 89.122923 81.085505 89.591673 80.61988 
Q 90.060423 80.152693 90.143235 79.235505 
Q 89.811985 79.479255 89.435423 79.60113 
Q 89.05886 79.723005 88.619798 79.723005 
Q 87.501048 79.723005 86.81511 79.071443 
Q 86.129173 78.41988 86.129173 77.355818 
Q 86.129173 76.177693 86.893235 75.46988 
Q 87.657298 74.762068 88.941673 74.762068 
Q 90.368235 74.762068 91.149485 75.724568 
Q 91.930735 76.685505 91.930735 78.443318 
Q 91.930735 80.25113 91.016673 81.283943 
Q 90.104173 82.316755 88.511985 82.316755 
Q 87.999485 82.316755 87.530735 82.240193 
Q 87.061985 82.165193 86.613548 82.01363 
z
M 88.932298 78.502693 
Q 89.426048 78.502693 89.674485 78.183943 
Q 89.922923 77.86363 89.922923 77.223005 
Q 89.922923 76.58863 89.674485 76.266755 
Q 89.426048 75.943318 88.932298 75.943318 
Q 88.438548 75.943318 88.19011 76.266755 
Q 87.941673 76.58863 87.941673 77.223005 
Q 87.941673 77.86363 88.19011 78.183943 
Q 88.438548 78.502693 88.932298 78.502693 
z
" style="fill: #ffffff"/>
   </g>
   <g id="text_14">
    <path d="M 150.084588 83.040057 
Q 150.084588 81.67287 149.828338 81.115057 
Q 149.572088 80.555682 148.965838 80.555682 
Q 148.361151 80.555682 148.101776 81.115057 
Q 147.842401 81.67287 147.842401 83.040057 
Q 147.842401 84.42287 148.101776 84.990057 
Q 148.361151 85.555682 148.965838 85.555682 
Q 149.567401 85.555682 149.825213 84.990057 
Q 150.084588 84.42287 150.084588 83.040057 
z
M 151.964276 83.055682 
Q 151.964276 84.86662 151.183026 85.850995 
Q 150.401776 86.83537 148.965838 86.83537 
Q 147.525213 86.83537 146.743963 85.850995 
Q 145.962713 84.86662 145.962713 83.055682 
Q 145.962713 81.238495 146.743963 80.255682 
Q 147.525213 79.271307 148.965838 79.271307 
Q 150.401776 79.271307 151.183026 80.255682 
Q 151.964276 81.238495 151.964276 83.055682 
z
M 153.462908 84.80412 
L 155.220721 84.80412 
L 155.220721 86.693182 
L 153.462908 86.693182 
L 153.462908 84.80412 
z
M 157.300799 79.402557 
L 161.974237 79.402557 
L 161.974237 80.78537 
L 158.800799 80.78537 
L 158.800799 81.913495 
Q 159.014862 81.85412 159.232049 81.82287 
Q 159.449237 81.790057 159.683612 81.790057 
Q 161.016424 81.790057 161.758612 82.457245 
Q 162.500799 83.124432 162.500799 84.315057 
Q 162.500799 85.496307 161.692987 86.16662 
Q 160.885174 86.83537 159.449237 86.83537 
Q 158.828924 86.83537 158.221112 86.715057 
Q 157.613299 86.594745 157.013299 86.350995 
L 157.013299 84.871307 
Q 157.608612 85.213495 158.142987 85.38537 
Q 158.677362 85.555682 159.152362 85.555682 
Q 159.835174 85.555682 160.227362 85.221307 
Q 160.621112 84.886932 160.621112 84.315057 
Q 160.621112 83.738495 160.227362 83.407245 
Q 159.835174 83.074432 159.152362 83.074432 
Q 158.746112 83.074432 158.286737 83.180682 
Q 157.828924 83.28537 157.300799 83.50412 
L 157.300799 79.402557 
z
M 164.371307 85.394745 
L 166.032244 85.394745 
L 166.032244 80.682245 
L 164.327557 81.033807 
L 164.327557 79.75412 
L 166.021307 79.402557 
L 167.808807 79.402557 
L 167.808807 85.394745 
L 169.469744 85.394745 
L 169.469744 86.693182 
L 164.371307 86.693182 
L 164.371307 85.394745 
z
M 173.03869 85.311932 
L 176.246502 85.311932 
L 176.246502 86.693182 
L 170.948065 86.693182 
L 170.948065 85.311932 
L 173.609002 82.961932 
Q 173.966815 82.640057 174.137127 82.332245 
Q 174.30744 82.024432 174.30744 81.693182 
Q 174.30744 81.180682 173.96369 80.868182 
Q 173.61994 80.555682 173.048065 80.555682 
Q 172.609002 80.555682 172.085565 80.743182 
Q 171.56369 80.930682 170.968377 81.302557 
L 170.968377 79.700995 
Q 171.602752 79.49162 172.223065 79.382245 
Q 172.843377 79.271307 173.43869 79.271307 
Q 174.748065 79.271307 175.473065 79.84787 
Q 176.198065 80.42287 176.198065 81.45412 
Q 176.198065 82.049432 175.890252 82.565057 
Q 175.58244 83.07912 174.596502 83.944745 
L 173.03869 85.311932 
z
" style="fill: #ffffff; stroke: #000000; stroke-width: 2"/>
    <path d="M 150.084588 83.040057 
Q 150.084588 81.67287 149.828338 81.115057 
Q 149.572088 80.555682 148.965838 80.555682 
Q 148.361151 80.555682 148.101776 81.115057 
Q 147.842401 81.67287 147.842401 83.040057 
Q 147.842401 84.42287 148.101776 84.990057 
Q 148.361151 85.555682 148.965838 85.555682 
Q 149.567401 85.555682 149.825213 84.990057 
Q 150.084588 84.42287 150.084588 83.040057 
z
M 151.964276 83.055682 
Q 151.964276 84.86662 151.183026 85.850995 
Q 150.401776 86.83537 148.965838 86.83537 
Q 147.525213 86.83537 146.743963 85.850995 
Q 145.962713 84.86662 145.962713 83.055682 
Q 145.962713 81.238495 146.743963 80.255682 
Q 147.525213 79.271307 148.965838 79.271307 
Q 150.401776 79.271307 151.183026 80.255682 
Q 151.964276 81.238495 151.964276 83.055682 
z
M 153.462908 84.80412 
L 155.220721 84.80412 
L 155.220721 86.693182 
L 153.462908 86.693182 
L 153.462908 84.80412 
z
M 157.300799 79.402557 
L 161.974237 79.402557 
L 161.974237 80.78537 
L 158.800799 80.78537 
L 158.800799 81.913495 
Q 159.014862 81.85412 159.232049 81.82287 
Q 159.449237 81.790057 159.683612 81.790057 
Q 161.016424 81.790057 161.758612 82.457245 
Q 162.500799 83.124432 162.500799 84.315057 
Q 162.500799 85.496307 161.692987 86.16662 
Q 160.885174 86.83537 159.449237 86.83537 
Q 158.828924 86.83537 158.221112 86.715057 
Q 157.613299 86.594745 157.013299 86.350995 
L 157.013299 84.871307 
Q 157.608612 85.213495 158.142987 85.38537 
Q 158.677362 85.555682 159.152362 85.555682 
Q 159.835174 85.555682 160.227362 85.221307 
Q 160.621112 84.886932 160.621112 84.315057 
Q 160.621112 83.738495 160.227362 83.407245 
Q 159.835174 83.074432 159.152362 83.074432 
Q 158.746112 83.074432 158.286737 83.180682 
Q 157.828924 83.28537 157.300799 83.50412 
L 157.300799 79.402557 
z
M 164.371307 85.394745 
L 166.032244 85.394745 
L 166.032244 80.682245 
L 164.327557 81.033807 
L 164.327557 79.75412 
L 166.021307 79.402557 
L 167.808807 79.402557 
L 167.808807 85.394745 
L 169.469744 85.394745 
L 169.469744 86.693182 
L 164.371307 86.693182 
L 164.371307 85.394745 
z
M 173.03869 85.311932 
L 176.246502 85.311932 
L 176.246502 86.693182 
L 170.948065 86.693182 
L 170.948065 85.311932 
L 173.609002 82.961932 
Q 173.966815 82.640057 174.137127 82.332245 
Q 174.30744 82.024432 174.30744 81.693182 
Q 174.30744 81.180682 173.96369 80.868182 
Q 173.61994 80.555682 173.048065 80.555682 
Q 172.609002 80.555682 172.085565 80.743182 
Q 171.56369 80.930682 170.968377 81.302557 
L 170.968377 79.700995 
Q 171.602752 79.49162 172.223065 79.382245 
Q 172.843377 79.271307 173.43869 79.271307 
Q 174.748065 79.271307 175.473065 79.84787 
Q 176.198065 80.42287 176.198065 81.45412 
Q 176.198065 82.049432 175.890252 82.565057 
Q 175.58244 83.07912 174.596502 83.944745 
L 173.03869 85.311932 
z
" style="fill: #ffffff"/>
   </g>
   <g id="text_15">
    <path d="M 82.448224 89.303648 
Q 82.448224 87.93646 82.191974 87.378648 
Q 81.935724 86.819273 81.329474 86.819273 
Q 80.724787 86.819273 80.465412 87.378648 
Q 80.206037 87.93646 80.206037 89.303648 
Q 80.206037 90.68646 80.465412 91.253648 
Q 80.724787 91.819273 81.329474 91.819273 
Q 81.931037 91.819273 82.188849 91.253648 
Q 82.448224 90.68646 82.448224 89.303648 
z
M 84.327912 89.319273 
Q 84.327912 91.13021 83.546662 92.114585 
Q 82.765412 93.09896 81.329474 93.09896 
Q 79.888849 93.09896 79.107599 92.114585 
Q 78.326349 91.13021 78.326349 89.319273 
Q 78.326349 87.502085 79.107599 86.519273 
Q 79.888849 85.534898 81.329474 85.534898 
Q 82.765412 85.534898 83.546662 86.519273 
Q 84.327912 87.502085 84.327912 89.319273 
z
M 85.826545 91.06771 
L 87.584357 91.06771 
L 87.584357 92.956773 
L 85.826545 92.956773 
L 85.826545 91.06771 
z
M 92.28631 87.214585 
L 90.226935 90.266148 
L 92.28631 90.266148 
L 92.28631 87.214585 
z
M 91.97381 85.666148 
L 94.064435 85.666148 
L 94.064435 90.266148 
L 95.103498 90.266148 
L 95.103498 91.628648 
L 94.064435 91.628648 
L 94.064435 92.956773 
L 92.28631 92.956773 
L 92.28631 91.628648 
L 89.05506 91.628648 
L 89.05506 90.01771 
L 91.97381 85.666148 
z
M 99.181818 89.358335 
Q 98.688068 89.358335 98.441193 89.678648 
Q 98.194318 89.997398 98.194318 90.638023 
Q 98.194318 91.277085 98.441193 91.597398 
Q 98.688068 91.916148 99.181818 91.916148 
Q 99.678693 91.916148 99.925568 91.597398 
Q 100.172443 91.277085 100.172443 90.638023 
Q 100.172443 89.997398 99.925568 89.678648 
Q 99.678693 89.358335 99.181818 89.358335 
z
M 101.505256 85.856773 
L 101.505256 87.20521 
Q 101.041193 86.984898 100.630256 86.88021 
Q 100.220881 86.775523 99.830256 86.775523 
Q 98.991193 86.775523 98.522443 87.24271 
Q 98.053693 87.708335 97.975568 88.625523 
Q 98.297443 88.38646 98.672443 88.26771 
Q 99.049006 88.147398 99.494318 88.147398 
Q 100.611506 88.147398 101.297443 88.802085 
Q 101.983381 89.45521 101.983381 90.514585 
Q 101.983381 91.68646 101.216193 92.39271 
Q 100.450568 93.09896 99.161506 93.09896 
Q 97.741193 93.09896 96.961506 92.139585 
Q 96.183381 91.178648 96.183381 89.416148 
Q 96.183381 87.609898 97.094318 86.577085 
Q 98.005256 85.544273 99.591193 85.544273 
Q 100.094318 85.544273 100.567756 85.622398 
Q 101.041193 85.700523 101.505256 85.856773 
z
M 103.580451 85.666148 
L 108.253888 85.666148 
L 108.253888 87.04896 
L 105.080451 87.04896 
L 105.080451 88.177085 
Q 105.294513 88.11771 105.511701 88.08646 
Q 105.728888 88.053648 105.963263 88.053648 
Q 107.296076 88.053648 108.038263 88.720835 
Q 108.780451 89.388023 108.780451 90.578648 
Q 108.780451 91.759898 107.972638 92.43021 
Q 107.164826 93.09896 105.728888 93.09896 
Q 105.108576 93.09896 104.500763 92.978648 
Q 103.892951 92.858335 103.292951 92.614585 
L 103.292951 91.134898 
Q 103.888263 91.477085 104.422638 91.64896 
Q 104.957013 91.819273 105.432013 91.819273 
Q 106.114826 91.819273 106.507013 91.484898 
Q 106.900763 91.150523 106.900763 90.578648 
Q 106.900763 90.002085 106.507013 89.670835 
Q 106.114826 89.338023 105.432013 89.338023 
Q 105.025763 89.338023 104.566388 89.444273 
Q 104.108576 89.54896 103.580451 89.76771 
L 103.580451 85.666148 
z
" style="fill: #ffffff; stroke: #000000; stroke-width: 2"/>
    <path d="M 82.448224 89.303648 
Q 82.448224 87.93646 82.191974 87.378648 
Q 81.935724 86.819273 81.329474 86.819273 
Q 80.724787 86.819273 80.465412 87.378648 
Q 80.206037 87.93646 80.206037 89.303648 
Q 80.206037 90.68646 80.465412 91.253648 
Q 80.724787 91.819273 81.329474 91.819273 
Q 81.931037 91.819273 82.188849 91.253648 
Q 82.448224 90.68646 82.448224 89.303648 
z
M 84.327912 89.319273 
Q 84.327912 91.13021 83.546662 92.114585 
Q 82.765412 93.09896 81.329474 93.09896 
Q 79.888849 93.09896 79.107599 92.114585 
Q 78.326349 91.13021 78.326349 89.319273 
Q 78.326349 87.502085 79.107599 86.519273 
Q 79.888849 85.534898 81.329474 85.534898 
Q 82.765412 85.534898 83.546662 86.519273 
Q 84.327912 87.502085 84.327912 89.319273 
z
M 85.826545 91.06771 
L 87.584357 91.06771 
L 87.584357 92.956773 
L 85.826545 92.956773 
L 85.826545 91.06771 
z
M 92.28631 87.214585 
L 90.226935 90.266148 
L 92.28631 90.266148 
L 92.28631 87.214585 
z
M 91.97381 85.666148 
L 94.064435 85.666148 
L 94.064435 90.266148 
L 95.103498 90.266148 
L 95.103498 91.628648 
L 94.064435 91.628648 
L 94.064435 92.956773 
L 92.28631 92.956773 
L 92.28631 91.628648 
L 89.05506 91.628648 
L 89.05506 90.01771 
L 91.97381 85.666148 
z
M 99.181818 89.358335 
Q 98.688068 89.358335 98.441193 89.678648 
Q 98.194318 89.997398 98.194318 90.638023 
Q 98.194318 91.277085 98.441193 91.597398 
Q 98.688068 91.916148 99.181818 91.916148 
Q 99.678693 91.916148 99.925568 91.597398 
Q 100.172443 91.277085 100.172443 90.638023 
Q 100.172443 89.997398 99.925568 89.678648 
Q 99.678693 89.358335 99.181818 89.358335 
z
M 101.505256 85.856773 
L 101.505256 87.20521 
Q 101.041193 86.984898 100.630256 86.88021 
Q 100.220881 86.775523 99.830256 86.775523 
Q 98.991193 86.775523 98.522443 87.24271 
Q 98.053693 87.708335 97.975568 88.625523 
Q 98.297443 88.38646 98.672443 88.26771 
Q 99.049006 88.147398 99.494318 88.147398 
Q 100.611506 88.147398 101.297443 88.802085 
Q 101.983381 89.45521 101.983381 90.514585 
Q 101.983381 91.68646 101.216193 92.39271 
Q 100.450568 93.09896 99.161506 93.09896 
Q 97.741193 93.09896 96.961506 92.139585 
Q 96.183381 91.178648 96.183381 89.416148 
Q 96.183381 87.609898 97.094318 86.577085 
Q 98.005256 85.544273 99.591193 85.544273 
Q 100.094318 85.544273 100.567756 85.622398 
Q 101.041193 85.700523 101.505256 85.856773 
z
M 103.580451 85.666148 
L 108.253888 85.666148 
L 108.253888 87.04896 
L 105.080451 87.04896 
L 105.080451 88.177085 
Q 105.294513 88.11771 105.511701 88.08646 
Q 105.728888 88.053648 105.963263 88.053648 
Q 107.296076 88.053648 108.038263 88.720835 
Q 108.780451 89.388023 108.780451 90.578648 
Q 108.780451 91.759898 107.972638 92.43021 
Q 107.164826 93.09896 105.728888 93.09896 
Q 105.108576 93.09896 104.500763 92.978648 
Q 103.892951 92.858335 103.292951 92.614585 
L 103.292951 91.134898 
Q 103.888263 91.477085 104.422638 91.64896 
Q 104.957013 91.819273 105.432013 91.819273 
Q 106.114826 91.819273 106.507013 91.484898 
Q 106.900763 91.150523 106.900763 90.578648 
Q 106.900763 90.002085 106.507013 89.670835 
Q 106.114826 89.338023 105.432013 89.338023 
Q 105.025763 89.338023 104.566388 89.444273 
Q 104.108576 89.54896 103.580451 89.76771 
L 103.580451 85.666148 
z
" style="fill: #ffffff"/>
   </g>
   <g id="text_16">
    <path d="M 166.993679 97.258233 
Q 166.993679 95.891045 166.737429 95.333233 
Q 166.481179 94.773858 165.874929 94.773858 
Q 165.270241 94.773858 165.010866 95.333233 
Q 164.751491 95.891045 164.751491 97.258233 
Q 164.751491 98.641045 165.010866 99.208233 
Q 165.270241 99.773858 165.874929 99.773858 
Q 166.476491 99.773858 166.734304 99.208233 
Q 166.993679 98.641045 166.993679 97.258233 
z
M 168.873366 97.273858 
Q 168.873366 99.084795 168.092116 100.06917 
Q 167.310866 101.053545 165.874929 101.053545 
Q 164.434304 101.053545 163.653054 100.06917 
Q 162.871804 99.084795 162.871804 97.273858 
Q 162.871804 95.45667 163.653054 94.473858 
Q 164.434304 93.489483 165.874929 93.489483 
Q 167.310866 93.489483 168.092116 94.473858 
Q 168.873366 95.45667 168.873366 97.273858 
z
M 170.371999 99.022295 
L 172.129812 99.022295 
L 172.129812 100.911358 
L 170.371999 100.911358 
L 170.371999 99.022295 
z
M 176.831765 95.16917 
L 174.77239 98.220733 
L 176.831765 98.220733 
L 176.831765 95.16917 
z
M 176.519265 93.620733 
L 178.60989 93.620733 
L 178.60989 98.220733 
L 179.648952 98.220733 
L 179.648952 99.583233 
L 178.60989 99.583233 
L 178.60989 100.911358 
L 176.831765 100.911358 
L 176.831765 99.583233 
L 173.600515 99.583233 
L 173.600515 97.972295 
L 176.519265 93.620733 
z
M 183.789773 95.16917 
L 181.730398 98.220733 
L 183.789773 98.220733 
L 183.789773 95.16917 
z
M 183.477273 93.620733 
L 185.567898 93.620733 
L 185.567898 98.220733 
L 186.60696 98.220733 
L 186.60696 99.583233 
L 185.567898 99.583233 
L 185.567898 100.911358 
L 183.789773 100.911358 
L 183.789773 99.583233 
L 180.558523 99.583233 
L 180.558523 97.972295 
L 183.477273 93.620733 
z
M 188.125906 93.620733 
L 192.799343 93.620733 
L 192.799343 95.003545 
L 189.625906 95.003545 
L 189.625906 96.13167 
Q 189.839968 96.072295 190.057156 96.041045 
Q 190.274343 96.008233 190.508718 96.008233 
Q 191.841531 96.008233 192.583718 96.67542 
Q 193.325906 97.342608 193.325906 98.533233 
Q 193.325906 99.714483 192.518093 100.384795 
Q 191.710281 101.053545 190.274343 101.053545 
Q 189.654031 101.053545 189.046218 100.933233 
Q 188.438406 100.81292 187.838406 100.56917 
L 187.838406 99.089483 
Q 188.433718 99.43167 188.968093 99.603545 
Q 189.502468 99.773858 189.977468 99.773858 
Q 190.660281 99.773858 191.052468 99.439483 
Q 191.446218 99.105108 191.446218 98.533233 
Q 191.446218 97.95667 191.052468 97.62542 
Q 190.660281 97.292608 189.977468 97.292608 
Q 189.571218 97.292608 189.111843 97.398858 
Q 188.654031 97.503545 188.125906 97.722295 
L 188.125906 93.620733 
z
" style="fill: #ffffff; stroke: #000000; stroke-width: 2"/>
    <path d="M 166.993679 97.258233 
Q 166.993679 95.891045 166.737429 95.333233 
Q 166.481179 94.773858 165.874929 94.773858 
Q 165.270241 94.773858 165.010866 95.333233 
Q 164.751491 95.891045 164.751491 97.258233 
Q 164.751491 98.641045 165.010866 99.208233 
Q 165.270241 99.773858 165.874929 99.773858 
Q 166.476491 99.773858 166.734304 99.208233 
Q 166.993679 98.641045 166.993679 97.258233 
z
M 168.873366 97.273858 
Q 168.873366 99.084795 168.092116 100.06917 
Q 167.310866 101.053545 165.874929 101.053545 
Q 164.434304 101.053545 163.653054 100.06917 
Q 162.871804 99.084795 162.871804 97.273858 
Q 162.871804 95.45667 163.653054 94.473858 
Q 164.434304 93.489483 165.874929 93.489483 
Q 167.310866 93.489483 168.092116 94.473858 
Q 168.873366 95.45667 168.873366 97.273858 
z
M 170.371999 99.022295 
L 172.129812 99.022295 
L 172.129812 100.911358 
L 170.371999 100.911358 
L 170.371999 99.022295 
z
M 176.831765 95.16917 
L 174.77239 98.220733 
L 176.831765 98.220733 
L 176.831765 95.16917 
z
M 176.519265 93.620733 
L 178.60989 93.620733 
L 178.60989 98.220733 
L 179.648952 98.220733 
L 179.648952 99.583233 
L 178.60989 99.583233 
L 178.60989 100.911358 
L 176.831765 100.911358 
L 176.831765 99.583233 
L 173.600515 99.583233 
L 173.600515 97.972295 
L 176.519265 93.620733 
z
M 183.789773 95.16917 
L 181.730398 98.220733 
L 183.789773 98.220733 
L 183.789773 95.16917 
z
M 183.477273 93.620733 
L 185.567898 93.620733 
L 185.567898 98.220733 
L 186.60696 98.220733 
L 186.60696 99.583233 
L 185.567898 99.583233 
L 185.567898 100.911358 
L 183.789773 100.911358 
L 183.789773 99.583233 
L 180.558523 99.583233 
L 180.558523 97.972295 
L 183.477273 93.620733 
z
M 188.125906 93.620733 
L 192.799343 93.620733 
L 192.799343 95.003545 
L 189.625906 95.003545 
L 189.625906 96.13167 
Q 189.839968 96.072295 190.057156 96.041045 
Q 190.274343 96.008233 190.508718 96.008233 
Q 191.841531 96.008233 192.583718 96.67542 
Q 193.325906 97.342608 193.325906 98.533233 
Q 193.325906 99.714483 192.518093 100.384795 
Q 191.710281 101.053545 190.274343 101.053545 
Q 189.654031 101.053545 189.046218 100.933233 
Q 188.438406 100.81292 187.838406 100.56917 
L 187.838406 99.089483 
Q 188.433718 99.43167 188.968093 99.603545 
Q 189.502468 99.773858 189.977468 99.773858 
Q 190.660281 99.773858 191.052468 99.439483 
Q 191.446218 99.105108 191.446218 98.533233 
Q 191.446218 97.95667 191.052468 97.62542 
Q 190.660281 97.292608 189.977468 97.292608 
Q 189.571218 97.292608 189.111843 97.398858 
Q 188.654031 97.503545 188.125906 97.722295 
L 188.125906 93.620733 
z
" style="fill: #ffffff"/>
   </g>
   <g id="text_17">
    <path d="M 99.357315 102.680227 
Q 99.357315 101.31304 99.101065 100.755227 
Q 98.844815 100.195852 98.238565 100.195852 
Q 97.633878 100.195852 97.374503 100.755227 
Q 97.115128 101.31304 97.115128 102.680227 
Q 97.115128 104.06304 97.374503 104.630227 
Q 97.633878 105.195852 98.238565 105.195852 
Q 98.840128 105.195852 99.09794 104.630227 
Q 99.357315 104.06304 99.357315 102.680227 
z
M 101.237003 102.695852 
Q 101.237003 104.50679 100.455753 105.491165 
Q 99.674503 106.47554 98.238565 106.47554 
Q 96.79794 106.47554 96.01669 105.491165 
Q 95.23544 104.50679 95.23544 102.695852 
Q 95.23544 100.878665 96.01669 99.895852 
Q 96.79794 98.911477 98.238565 98.911477 
Q 99.674503 98.911477 100.455753 99.895852 
Q 101.237003 100.878665 101.237003 102.695852 
z
M 102.735636 104.44429 
L 104.493448 104.44429 
L 104.493448 106.333352 
L 102.735636 106.333352 
L 102.735636 104.44429 
z
M 109.195401 100.591165 
L 107.136026 103.642727 
L 109.195401 103.642727 
L 109.195401 100.591165 
z
M 108.882901 99.042727 
L 110.973526 99.042727 
L 110.973526 103.642727 
L 112.012589 103.642727 
L 112.012589 105.005227 
L 110.973526 105.005227 
L 110.973526 106.333352 
L 109.195401 106.333352 
L 109.195401 105.005227 
L 105.964151 105.005227 
L 105.964151 103.39429 
L 108.882901 99.042727 
z
M 116.090909 102.734915 
Q 115.597159 102.734915 115.350284 103.055227 
Q 115.103409 103.373977 115.103409 104.014602 
Q 115.103409 104.653665 115.350284 104.973977 
Q 115.597159 105.292727 116.090909 105.292727 
Q 116.587784 105.292727 116.834659 104.973977 
Q 117.081534 104.653665 117.081534 104.014602 
Q 117.081534 103.373977 116.834659 103.055227 
Q 116.587784 102.734915 116.090909 102.734915 
z
M 118.414347 99.233352 
L 118.414347 100.58179 
Q 117.950284 100.361477 117.539347 100.25679 
Q 117.129972 100.152102 116.739347 100.152102 
Q 115.900284 100.152102 115.431534 100.61929 
Q 114.962784 101.084915 114.884659 102.002102 
Q 115.206534 101.76304 115.581534 101.64429 
Q 115.958097 101.523977 116.403409 101.523977 
Q 117.520597 101.523977 118.206534 102.178665 
Q 118.892472 102.83179 118.892472 103.891165 
Q 118.892472 105.06304 118.125284 105.76929 
Q 117.359659 106.47554 116.070597 106.47554 
Q 114.650284 106.47554 113.870597 105.516165 
Q 113.092472 104.555227 113.092472 102.792727 
Q 113.092472 100.986477 114.003409 99.953665 
Q 114.914347 98.920852 116.500284 98.920852 
Q 117.003409 98.920852 117.476847 98.998977 
Q 117.950284 99.077102 118.414347 99.233352 
z
M 124.087979 102.402102 
Q 124.825479 102.592727 125.208292 103.064602 
Q 125.592667 103.534915 125.592667 104.26304 
Q 125.592667 105.347415 124.761417 105.911477 
Q 123.931729 106.47554 122.341104 106.47554 
Q 121.778604 106.47554 121.214542 106.384915 
Q 120.650479 106.29429 120.098917 106.11304 
L 120.098917 104.66304 
Q 120.627042 104.927102 121.145792 105.061477 
Q 121.666104 105.195852 122.169229 105.195852 
Q 122.916104 105.195852 123.314542 104.93804 
Q 123.712979 104.678665 123.712979 104.19429 
Q 123.712979 103.695852 123.305167 103.439602 
Q 122.897354 103.183352 122.100479 103.183352 
L 121.348917 103.183352 
L 121.348917 101.972415 
L 122.139542 101.972415 
Q 122.848917 101.972415 123.194229 101.75054 
Q 123.541104 101.528665 123.541104 101.073977 
Q 123.541104 100.655227 123.203604 100.42554 
Q 122.867667 100.195852 122.252042 100.195852 
Q 121.798917 100.195852 121.334854 100.298977 
Q 120.870792 100.40054 120.411417 100.60054 
L 120.411417 99.223977 
Q 120.967667 99.067727 121.514542 98.989602 
Q 122.061417 98.911477 122.589542 98.911477 
Q 124.009854 98.911477 124.714542 99.378665 
Q 125.420792 99.84429 125.420792 100.78179 
Q 125.420792 101.420852 125.083292 101.828665 
Q 124.747354 102.236477 124.087979 102.402102 
z
" style="fill: #ffffff; stroke: #000000; stroke-width: 2"/>
    <path d="M 99.357315 102.680227 
Q 99.357315 101.31304 99.101065 100.755227 
Q 98.844815 100.195852 98.238565 100.195852 
Q 97.633878 100.195852 97.374503 100.755227 
Q 97.115128 101.31304 97.115128 102.680227 
Q 97.115128 104.06304 97.374503 104.630227 
Q 97.633878 105.195852 98.238565 105.195852 
Q 98.840128 105.195852 99.09794 104.630227 
Q 99.357315 104.06304 99.357315 102.680227 
z
M 101.237003 102.695852 
Q 101.237003 104.50679 100.455753 105.491165 
Q 99.674503 106.47554 98.238565 106.47554 
Q 96.79794 106.47554 96.01669 105.491165 
Q 95.23544 104.50679 95.23544 102.695852 
Q 95.23544 100.878665 96.01669 99.895852 
Q 96.79794 98.911477 98.238565 98.911477 
Q 99.674503 98.911477 100.455753 99.895852 
Q 101.237003 100.878665 101.237003 102.695852 
z
M 102.735636 104.44429 
L 104.493448 104.44429 
L 104.493448 106.333352 
L 102.735636 106.333352 
L 102.735636 104.44429 
z
M 109.195401 100.591165 
L 107.136026 103.642727 
L 109.195401 103.642727 
L 109.195401 100.591165 
z
M 108.882901 99.042727 
L 110.973526 99.042727 
L 110.973526 103.642727 
L 112.012589 103.642727 
L 112.012589 105.005227 
L 110.973526 105.005227 
L 110.973526 106.333352 
L 109.195401 106.333352 
L 109.195401 105.005227 
L 105.964151 105.005227 
L 105.964151 103.39429 
L 108.882901 99.042727 
z
M 116.090909 102.734915 
Q 115.597159 102.734915 115.350284 103.055227 
Q 115.103409 103.373977 115.103409 104.014602 
Q 115.103409 104.653665 115.350284 104.973977 
Q 115.597159 105.292727 116.090909 105.292727 
Q 116.587784 105.292727 116.834659 104.973977 
Q 117.081534 104.653665 117.081534 104.014602 
Q 117.081534 103.373977 116.834659 103.055227 
Q 116.587784 102.734915 116.090909 102.734915 
z
M 118.414347 99.233352 
L 118.414347 100.58179 
Q 117.950284 100.361477 117.539347 100.25679 
Q 117.129972 100.152102 116.739347 100.152102 
Q 115.900284 100.152102 115.431534 100.61929 
Q 114.962784 101.084915 114.884659 102.002102 
Q 115.206534 101.76304 115.581534 101.64429 
Q 115.958097 101.523977 116.403409 101.523977 
Q 117.520597 101.523977 118.206534 102.178665 
Q 118.892472 102.83179 118.892472 103.891165 
Q 118.892472 105.06304 118.125284 105.76929 
Q 117.359659 106.47554 116.070597 106.47554 
Q 114.650284 106.47554 113.870597 105.516165 
Q 113.092472 104.555227 113.092472 102.792727 
Q 113.092472 100.986477 114.003409 99.953665 
Q 114.914347 98.920852 116.500284 98.920852 
Q 117.003409 98.920852 117.476847 98.998977 
Q 117.950284 99.077102 118.414347 99.233352 
z
M 124.087979 102.402102 
Q 124.825479 102.592727 125.208292 103.064602 
Q 125.592667 103.534915 125.592667 104.26304 
Q 125.592667 105.347415 124.761417 105.911477 
Q 123.931729 106.47554 122.341104 106.47554 
Q 121.778604 106.47554 121.214542 106.384915 
Q 120.650479 106.29429 120.098917 106.11304 
L 120.098917 104.66304 
Q 120.627042 104.927102 121.145792 105.061477 
Q 121.666104 105.195852 122.169229 105.195852 
Q 122.916104 105.195852 123.314542 104.93804 
Q 123.712979 104.678665 123.712979 104.19429 
Q 123.712979 103.695852 123.305167 103.439602 
Q 122.897354 103.183352 122.100479 103.183352 
L 121.348917 103.183352 
L 121.348917 101.972415 
L 122.139542 101.972415 
Q 122.848917 101.972415 123.194229 101.75054 
Q 123.541104 101.528665 123.541104 101.073977 
Q 123.541104 100.655227 123.203604 100.42554 
Q 122.867667 100.195852 122.252042 100.195852 
Q 121.798917 100.195852 121.334854 100.298977 
Q 120.870792 100.40054 120.411417 100.60054 
L 120.411417 99.223977 
Q 120.967667 99.067727 121.514542 98.989602 
Q 122.061417 98.911477 122.589542 98.911477 
Q 124.009854 98.911477 124.714542 99.378665 
Q 125.420792 99.84429 125.420792 100.78179 
Q 125.420792 101.420852 125.083292 101.828665 
Q 124.747354 102.236477 124.087979 102.402102 
z
" style="fill: #ffffff"/>
   </g>
   <g id="text_18">
    <path d="M 183.90277 110.163244 
Q 183.90277 108.796057 183.64652 108.238244 
Q 183.39027 107.678869 182.78402 107.678869 
Q 182.179332 107.678869 181.919957 108.238244 
Q 181.660582 108.796057 181.660582 110.163244 
Q 181.660582 111.546057 181.919957 112.113244 
Q 182.179332 112.678869 182.78402 112.678869 
Q 183.385582 112.678869 183.643395 112.113244 
Q 183.90277 111.546057 183.90277 110.163244 
z
M 185.782457 110.178869 
Q 185.782457 111.989807 185.001207 112.974182 
Q 184.219957 113.958557 182.78402 113.958557 
Q 181.343395 113.958557 180.562145 112.974182 
Q 179.780895 111.989807 179.780895 110.178869 
Q 179.780895 108.361682 180.562145 107.378869 
Q 181.343395 106.394494 182.78402 106.394494 
Q 184.219957 106.394494 185.001207 107.378869 
Q 185.782457 108.361682 185.782457 110.178869 
z
M 187.28109 111.927307 
L 189.038903 111.927307 
L 189.038903 113.816369 
L 187.28109 113.816369 
L 187.28109 111.927307 
z
M 193.740856 108.074182 
L 191.681481 111.125744 
L 193.740856 111.125744 
L 193.740856 108.074182 
z
M 193.428356 106.525744 
L 195.518981 106.525744 
L 195.518981 111.125744 
L 196.558043 111.125744 
L 196.558043 112.488244 
L 195.518981 112.488244 
L 195.518981 113.816369 
L 193.740856 113.816369 
L 193.740856 112.488244 
L 190.509606 112.488244 
L 190.509606 110.877307 
L 193.428356 106.525744 
z
M 200.698864 108.074182 
L 198.639489 111.125744 
L 200.698864 111.125744 
L 200.698864 108.074182 
z
M 200.386364 106.525744 
L 202.476989 106.525744 
L 202.476989 111.125744 
L 203.516051 111.125744 
L 203.516051 112.488244 
L 202.476989 112.488244 
L 202.476989 113.816369 
L 200.698864 113.816369 
L 200.698864 112.488244 
L 197.467614 112.488244 
L 197.467614 110.877307 
L 200.386364 106.525744 
z
M 207.656871 108.074182 
L 205.597496 111.125744 
L 207.656871 111.125744 
L 207.656871 108.074182 
z
M 207.344371 106.525744 
L 209.434996 106.525744 
L 209.434996 111.125744 
L 210.474059 111.125744 
L 210.474059 112.488244 
L 209.434996 112.488244 
L 209.434996 113.816369 
L 207.656871 113.816369 
L 207.656871 112.488244 
L 204.425621 112.488244 
L 204.425621 110.877307 
L 207.344371 106.525744 
z
" style="fill: #ffffff; stroke: #000000; stroke-width: 2"/>
    <path d="M 183.90277 110.163244 
Q 183.90277 108.796057 183.64652 108.238244 
Q 183.39027 107.678869 182.78402 107.678869 
Q 182.179332 107.678869 181.919957 108.238244 
Q 181.660582 108.796057 181.660582 110.163244 
Q 181.660582 111.546057 181.919957 112.113244 
Q 182.179332 112.678869 182.78402 112.678869 
Q 183.385582 112.678869 183.643395 112.113244 
Q 183.90277 111.546057 183.90277 110.163244 
z
M 185.782457 110.178869 
Q 185.782457 111.989807 185.001207 112.974182 
Q 184.219957 113.958557 182.78402 113.958557 
Q 181.343395 113.958557 180.562145 112.974182 
Q 179.780895 111.989807 179.780895 110.178869 
Q 179.780895 108.361682 180.562145 107.378869 
Q 181.343395 106.394494 182.78402 106.394494 
Q 184.219957 106.394494 185.001207 107.378869 
Q 185.782457 108.361682 185.782457 110.178869 
z
M 187.28109 111.927307 
L 189.038903 111.927307 
L 189.038903 113.816369 
L 187.28109 113.816369 
L 187.28109 111.927307 
z
M 193.740856 108.074182 
L 191.681481 111.125744 
L 193.740856 111.125744 
L 193.740856 108.074182 
z
M 193.428356 106.525744 
L 195.518981 106.525744 
L 195.518981 111.125744 
L 196.558043 111.125744 
L 196.558043 112.488244 
L 195.518981 112.488244 
L 195.518981 113.816369 
L 193.740856 113.816369 
L 193.740856 112.488244 
L 190.509606 112.488244 
L 190.509606 110.877307 
L 193.428356 106.525744 
z
M 200.698864 108.074182 
L 198.639489 111.125744 
L 200.698864 111.125744 
L 200.698864 108.074182 
z
M 200.386364 106.525744 
L 202.476989 106.525744 
L 202.476989 111.125744 
L 203.516051 111.125744 
L 203.516051 112.488244 
L 202.476989 112.488244 
L 202.476989 113.816369 
L 200.698864 113.816369 
L 200.698864 112.488244 
L 197.467614 112.488244 
L 197.467614 110.877307 
L 200.386364 106.525744 
z
M 207.656871 108.074182 
L 205.597496 111.125744 
L 207.656871 111.125744 
L 207.656871 108.074182 
z
M 207.344371 106.525744 
L 209.434996 106.525744 
L 209.434996 111.125744 
L 210.474059 111.125744 
L 210.474059 112.488244 
L 209.434996 112.488244 
L 209.434996 113.816369 
L 207.656871 113.816369 
L 207.656871 112.488244 
L 204.425621 112.488244 
L 204.425621 110.877307 
L 207.344371 106.525744 
z
" style="fill: #ffffff"/>
   </g>
   <g id="legend_1">
    <g id="patch_15">
     <path d="M 76.02875 64.369219 
L 205.58125 64.369219 
Q 207.18125 64.369219 207.18125 62.769219 
L 207.18125 16.599219 
Q 207.18125 14.999219 205.58125 14.999219 
L 76.02875 14.999219 
Q 74.42875 14.999219 74.42875 16.599219 
L 74.42875 62.769219 
Q 74.42875 64.369219 76.02875 64.369219 
z
" style="fill: #ffffff; opacity: 0.8; stroke: #cccccc; stroke-linejoin: miter"/>
    </g>
    <g id="patch_16">
     <path d="M 77.62875 24.277969 
L 93.62875 24.277969 
L 93.62875 18.677969 
L 77.62875 18.677969 
z
" style="fill: #008000"/>
    </g>
    <g id="text_19">
     <!-- BART30 p&lt;1e-45 -->
     <g transform="translate(100.02875 24.277969) scale(0.08 -0.08)">
      <defs>
       <path id="DejaVuSans-42" d="M 1259 2228 
L 1259 519 
L 2272 519 
Q 2781 519 3026 730 
Q 3272 941 3272 1375 
Q 3272 1813 3026 2020 
Q 2781 2228 2272 2228 
L 1259 2228 
z
M 1259 4147 
L 1259 2741 
L 2194 2741 
Q 2656 2741 2882 2914 
Q 3109 3088 3109 3444 
Q 3109 3797 2882 3972 
Q 2656 4147 2194 4147 
L 1259 4147 
z
M 628 4666 
L 2241 4666 
Q 2963 4666 3353 4366 
Q 3744 4066 3744 3513 
Q 3744 3084 3544 2831 
Q 3344 2578 2956 2516 
Q 3422 2416 3680 2098 
Q 3938 1781 3938 1306 
Q 3938 681 3513 340 
Q 3088 0 2303 0 
L 628 0 
L 628 4666 
z
" transform="scale(0.015625)"/>
       <path id="DejaVuSans-52" d="M 2841 2188 
Q 3044 2119 3236 1894 
Q 3428 1669 3622 1275 
L 4263 0 
L 3584 0 
L 2988 1197 
Q 2756 1666 2539 1819 
Q 2322 1972 1947 1972 
L 1259 1972 
L 1259 0 
L 628 0 
L 628 4666 
L 2053 4666 
Q 2853 4666 3247 4331 
Q 3641 3997 3641 3322 
Q 3641 2881 3436 2590 
Q 3231 2300 2841 2188 
z
M 1259 4147 
L 1259 2491 
L 2053 2491 
Q 2509 2491 2742 2702 
Q 2975 2913 2975 3322 
Q 2975 3731 2742 3939 
Q 2509 4147 2053 4147 
L 1259 4147 
z
" transform="scale(0.015625)"/>
       <path id="DejaVuSans-3c" d="M 4684 3150 
L 1459 2003 
L 4684 863 
L 4684 294 
L 678 1747 
L 678 2266 
L 4684 3719 
L 4684 3150 
z
" transform="scale(0.015625)"/>
       <path id="DejaVuSans-31" d="M 794 531 
L 1825 531 
L 1825 4091 
L 703 3866 
L 703 4441 
L 1819 4666 
L 2450 4666 
L 2450 531 
L 3481 531 
L 3481 0 
L 794 0 
L 794 531 
z
" transform="scale(0.015625)"/>
      </defs>
      <use xlink:href="#DejaVuSans-42"/>
      <use xlink:href="#DejaVuSans-41" x="68.603516"/>
      <use xlink:href="#DejaVuSans-52" x="137.011719"/>
      <use xlink:href="#DejaVuSans-54" x="199.244141"/>
      <use xlink:href="#DejaVuSans-33" x="260.328125"/>
      <use xlink:href="#DejaVuSans-30" x="323.951172"/>
      <use xlink:href="#DejaVuSans-20" x="387.574219"/>
      <use xlink:href="#DejaVuSans-70" x="419.361328"/>
      <use xlink:href="#DejaVuSans-3c" x="482.837891"/>
      <use xlink:href="#DejaVuSans-31" x="566.626953"/>
      <use xlink:href="#DejaVuSans-65" x="630.25"/>
      <use xlink:href="#DejaVuSans-2d" x="691.773438"/>
      <use xlink:href="#DejaVuSans-34" x="727.857422"/>
      <use xlink:href="#DejaVuSans-35" x="791.480469"/>
     </g>
    </g>
    <g id="patch_17">
     <path d="M 77.62875 36.020469 
L 93.62875 36.020469 
L 93.62875 30.420469 
L 77.62875 30.420469 
z
" style="fill: #ffa500"/>
    </g>
    <g id="text_20">
     <!-- BART30 Ablation p&lt;1e-29 -->
     <g transform="translate(100.02875 36.020469) scale(0.08 -0.08)">
      <defs>
       <path id="DejaVuSans-32" d="M 1228 531 
L 3431 531 
L 3431 0 
L 469 0 
L 469 531 
Q 828 903 1448 1529 
Q 2069 2156 2228 2338 
Q 2531 2678 2651 2914 
Q 2772 3150 2772 3378 
Q 2772 3750 2511 3984 
Q 2250 4219 1831 4219 
Q 1534 4219 1204 4116 
Q 875 4013 500 3803 
L 500 4441 
Q 881 4594 1212 4672 
Q 1544 4750 1819 4750 
Q 2544 4750 2975 4387 
Q 3406 4025 3406 3419 
Q 3406 3131 3298 2873 
Q 3191 2616 2906 2266 
Q 2828 2175 2409 1742 
Q 1991 1309 1228 531 
z
" transform="scale(0.015625)"/>
       <path id="DejaVuSans-39" d="M 703 97 
L 703 672 
Q 941 559 1184 500 
Q 1428 441 1663 441 
Q 2288 441 2617 861 
Q 2947 1281 2994 2138 
Q 2813 1869 2534 1725 
Q 2256 1581 1919 1581 
Q 1219 1581 811 2004 
Q 403 2428 403 3163 
Q 403 3881 828 4315 
Q 1253 4750 1959 4750 
Q 2769 4750 3195 4129 
Q 3622 3509 3622 2328 
Q 3622 1225 3098 567 
Q 2575 -91 1691 -91 
Q 1453 -91 1209 -44 
Q 966 3 703 97 
z
M 1959 2075 
Q 2384 2075 2632 2365 
Q 2881 2656 2881 3163 
Q 2881 3666 2632 3958 
Q 2384 4250 1959 4250 
Q 1534 4250 1286 3958 
Q 1038 3666 1038 3163 
Q 1038 2656 1286 2365 
Q 1534 2075 1959 2075 
z
" transform="scale(0.015625)"/>
      </defs>
      <use xlink:href="#DejaVuSans-42"/>
      <use xlink:href="#DejaVuSans-41" x="68.603516"/>
      <use xlink:href="#DejaVuSans-52" x="137.011719"/>
      <use xlink:href="#DejaVuSans-54" x="199.244141"/>
      <use xlink:href="#DejaVuSans-33" x="260.328125"/>
      <use xlink:href="#DejaVuSans-30" x="323.951172"/>
      <use xlink:href="#DejaVuSans-20" x="387.574219"/>
      <use xlink:href="#DejaVuSans-41" x="419.361328"/>
      <use xlink:href="#DejaVuSans-62" x="487.769531"/>
      <use xlink:href="#DejaVuSans-6c" x="551.246094"/>
      <use xlink:href="#DejaVuSans-61" x="579.029297"/>
      <use xlink:href="#DejaVuSans-74" x="640.308594"/>
      <use xlink:href="#DejaVuSans-69" x="679.517578"/>
      <use xlink:href="#DejaVuSans-6f" x="707.300781"/>
      <use xlink:href="#DejaVuSans-6e" x="768.482422"/>
      <use xlink:href="#DejaVuSans-20" x="831.861328"/>
      <use xlink:href="#DejaVuSans-70" x="863.648438"/>
      <use xlink:href="#DejaVuSans-3c" x="927.125"/>
      <use xlink:href="#DejaVuSans-31" x="1010.914062"/>
      <use xlink:href="#DejaVuSans-65" x="1074.537109"/>
      <use xlink:href="#DejaVuSans-2d" x="1136.060547"/>
      <use xlink:href="#DejaVuSans-32" x="1172.144531"/>
      <use xlink:href="#DejaVuSans-39" x="1235.767578"/>
     </g>
    </g>
    <g id="patch_18">
     <path d="M 77.62875 47.762969 
L 93.62875 47.762969 
L 93.62875 42.162969 
L 77.62875 42.162969 
z
" style="fill: #ff0000"/>
    </g>
    <g id="text_21">
     <!-- MFC p&lt;1e-20 -->
     <g transform="translate(100.02875 47.762969) scale(0.08 -0.08)">
      <defs>
       <path id="DejaVuSans-46" d="M 628 4666 
L 3309 4666 
L 3309 4134 
L 1259 4134 
L 1259 2759 
L 3109 2759 
L 3109 2228 
L 1259 2228 
L 1259 0 
L 628 0 
L 628 4666 
z
" transform="scale(0.015625)"/>
      </defs>
      <use xlink:href="#DejaVuSans-4d"/>
      <use xlink:href="#DejaVuSans-46" x="86.279297"/>
      <use xlink:href="#DejaVuSans-43" x="143.798828"/>
      <use xlink:href="#DejaVuSans-20" x="213.623047"/>
      <use xlink:href="#DejaVuSans-70" x="245.410156"/>
      <use xlink:href="#DejaVuSans-3c" x="308.886719"/>
      <use xlink:href="#DejaVuSans-31" x="392.675781"/>
      <use xlink:href="#DejaVuSans-65" x="456.298828"/>
      <use xlink:href="#DejaVuSans-2d" x="517.822266"/>
      <use xlink:href="#DejaVuSans-32" x="553.90625"/>
      <use xlink:href="#DejaVuSans-30" x="617.529297"/>
     </g>
    </g>
    <g id="patch_19">
     <path d="M 77.62875 59.505469 
L 93.62875 59.505469 
L 93.62875 53.905469 
L 77.62875 53.905469 
z
" style="fill: #0000ff"/>
    </g>
    <g id="text_22">
     <!-- MFB p&lt;1e-19 -->
     <g transform="translate(100.02875 59.505469) scale(0.08 -0.08)">
      <use xlink:href="#DejaVuSans-4d"/>
      <use xlink:href="#DejaVuSans-46" x="86.279297"/>
      <use xlink:href="#DejaVuSans-42" x="143.798828"/>
      <use xlink:href="#DejaVuSans-20" x="212.402344"/>
      <use xlink:href="#DejaVuSans-70" x="244.189453"/>
      <use xlink:href="#DejaVuSans-3c" x="307.666016"/>
      <use xlink:href="#DejaVuSans-31" x="391.455078"/>
      <use xlink:href="#DejaVuSans-65" x="455.078125"/>
      <use xlink:href="#DejaVuSans-2d" x="516.601562"/>
      <use xlink:href="#DejaVuSans-31" x="552.685547"/>
      <use xlink:href="#DejaVuSans-39" x="616.308594"/>
     </g>
    </g>
   </g>
  </g>
 </g>
 <defs>
  <clipPath id="pa4c4b43121">
   <rect x="43.78125" y="10.999219" width="167.4" height="155.232"/>
  </clipPath>
 </defs>
</svg>
